<svg viewBox="-800 -362 1600 724" width="1600" height="724" style="background-color: rgb(255, 255, 255);" xmlns="http://www.w3.org/2000/svg"><path d="M-276.71233280204876,-1.9001061352523774L-294.7656612113693,-3.9497948278488497M-294.7656612113693,-150.8095347981213L-294.7656612113693,-3.9497948278488497M-294.7656612113693,-3.9497948278488497L-340.4447216649644,53.37829905969381M-276.71233280204876,-148.75984610552482L-276.71233280204876,-1.9001061352523774M-276.71233280204876,-1.9001061352523774L-322.3913932556438,55.42798775229028M-192.37234601096645,7.675453193196295L-249.32425274951999,1.2094056801208306M-249.32425274951999,-145.65033429015162L-249.32425274951999,1.2094056801208306M-249.32425274951999,1.2094056801208306L-295.00331320311506,58.537499567663495" style="fill:none;stroke:rgb(0,0,0);stroke-width:1;stroke-linecap:round"></path><path d="M-276.71233280204876,-1.9001061352523774L-294.7656612113693,-3.9497948278488546L-294.7656612113693,-150.80953479812132z" style="fill:rgb(238,238,238); fill-opacity: 0.47"></path><path d="M-192.37234601096645,-139.18428677707615L-192.37234601096645,7.675453193196295M-192.37234601096645,7.675453193196295L-238.0514064645615,65.00354708073897" style="fill:none;stroke:rgb(0,0,0);stroke-width:1;stroke-linecap:round"></path><path d="M-192.37234601096645,7.6754531931963L-249.32425274951999,1.2094056801208306L-249.32425274951999,-145.65033429015162zM-276.71233280204876,-148.75984610552482L-276.71233280204876,-1.9001061352523774L-294.7656612113693,-150.80953479812132zM-340.44472166496445,53.3782990596938L-294.7656612113693,-3.9497948278488546L-276.71233280204876,-1.9001061352523774z" style="fill:rgb(238,238,238); fill-opacity: 0.47"></path><path d="M-99.49691633993798,12.948493737892061L-167.8392075605191,5.18923636634613M-167.8392075605191,-123.31303358190954L-167.8392075605191,5.18923636634613M-167.8392075605191,5.18923636634613L-207.80838467181422,55.3513175320022M-276.71233280204876,-148.75984610552482L-294.7656612113693,-150.8095347981213M-294.7656612113693,-150.8095347981213L-340.4447216649644,-93.48144091057866" style="fill:none;stroke:rgb(0,0,0);stroke-width:1;stroke-linecap:round"></path><path d="M-192.37234601096645,-139.18428677707615L-192.37234601096645,7.6754531931963L-249.32425274951999,-145.65033429015162zM-295.00331320311506,58.537499567663495L-249.32425274951999,1.2094056801208306L-192.37234601096645,7.6754531931963z" style="fill:rgb(238,238,238); fill-opacity: 0.47"></path><path d="M-276.71233280204876,-148.75984610552482L-322.3913932556438,-91.43175221798218M-99.49691633993797,-115.5537762103636L-99.49691633993798,12.948493737892061M-99.49691633993798,12.948493737892061L-139.46609345123306,63.110574903548134" style="fill:none;stroke:rgb(0,0,0);stroke-width:1;stroke-linecap:round"></path><path d="M-322.39139325564383,55.427987752290285L-276.71233280204876,-1.9001061352523774L-276.71233280204876,-148.75984610552482zM-99.49691633993798,12.948493737892061L-167.83920756051913,5.189236366346124L-167.8392075605191,-123.31303358190955z" style="fill:rgb(238,238,238); fill-opacity: 0.47"></path><path d="M-192.37234601096645,-139.18428677707615L-249.32425274951999,-145.65033429015162M-249.32425274951999,-145.65033429015162L-295.00331320311506,-88.32224040260897" style="fill:none;stroke:rgb(0,0,0);stroke-width:1;stroke-linecap:round"></path><path d="M-294.7656612113693,-150.80953479812132L-294.7656612113693,-3.9497948278488546L-340.44472166496445,-93.48144091057866z" style="fill:rgb(238,238,238); fill-opacity: 0.47"></path><path d="M4.768892557957738,19.514743544412468L-74.96377792078951,10.462276907488361M-74.96377792078951,-99.68252301875053L-74.96377792078951,10.462276907488361M-74.96377792078951,10.462276907488361L-109.22307168978462,53.45834535125785M-192.37234601096645,-139.18428677707615L-238.0514064645615,-81.8561928895335M-108.36198809617952,-12.820113045480397L-176.70427931676068,-20.57937041702633M-176.70427931676068,-28.524638591244845L-176.70427931676068,-20.57937041702633M-176.70427931676068,-20.57937041702633L-179.17556508455257,-17.47785954722972M-108.36198809617952,-20.765381219698913L-176.70427931676068,-28.524638591244845M-176.70427931676068,-28.524638591244845L-179.17556508455257,-25.423127721448235" style="fill:none;stroke:rgb(0,0,0);stroke-width:1;stroke-linecap:round"></path><path d="M-238.05140646456152,65.00354708073897L-192.37234601096645,7.6754531931963L-192.37234601096645,-139.18428677707615z" style="fill:rgb(238,238,238); fill-opacity: 0.47"></path><path d="M-176.70427931676068,-28.524638591244845L-176.70427931676068,-20.57937041702633L-179.17556508455257,-25.42312772144824z" style="fill:rgb(153,221,255); fill-opacity: 0.4"></path><path d="M-207.80838467181422,55.35131753200219L-167.83920756051913,5.189236366346124L-99.49691633993798,12.948493737892061zM-99.49691633993795,-115.55377621036362L-99.49691633993798,12.948493737892061L-167.8392075605191,-123.31303358190955zM-322.39139325564383,55.427987752290285L-340.44472166496445,53.3782990596938L-276.71233280204876,-1.9001061352523774z" style="fill:rgb(238,238,238); fill-opacity: 0.47"></path><path d="M-176.70427931676068,-20.57937041702633L-179.17556508455257,-17.47785954722972L-179.17556508455257,-25.42312772144824zM-108.36198809617952,-12.820113045480392L-176.70427931676068,-20.57937041702633L-176.70427931676068,-28.524638591244845z" style="fill:rgb(153,221,255); fill-opacity: 0.4"></path><path d="M-179.17556508455257,-25.423127721448235L-179.17556508455257,-17.47785954722972M-179.17556508455257,-17.47785954722972L-110.83327386397141,-9.718602175683786" style="fill:none;stroke:rgb(0,0,0);stroke-width:1;stroke-linecap:round"></path><path d="M-249.32425274951999,-145.65033429015162L-249.32425274951999,1.2094056801208306L-295.00331320311506,-88.32224040260897z" style="fill:rgb(238,238,238); fill-opacity: 0.47"></path><path d="M-179.17556508455257,-17.47785954722972L-176.70427931676068,-20.57937041702633L-108.36198809617952,-12.820113045480392z" style="fill:rgb(153,221,255); fill-opacity: 0.4"></path><path d="M-99.49691633993797,-115.5537762103636L-167.8392075605191,-123.31303358190954M-167.8392075605191,-123.31303358190954L-207.80838467181422,-73.15095241625347M-179.17556508455257,-25.423127721448235L-110.83327386397141,-17.6638703499023" style="fill:none;stroke:rgb(0,0,0);stroke-width:1;stroke-linecap:round"></path><path d="M-179.17556508455257,-25.42312772144824L-110.83327386397141,-17.6638703499023L-176.70427931676068,-28.524638591244845zM-108.36198809617952,-20.76538121969891L-108.36198809617952,-12.820113045480392L-176.70427931676068,-28.524638591244845zM-179.17556508455257,-25.42312772144824L-179.17556508455257,-17.47785954722972L-110.83327386397141,-17.6638703499023zM-110.83327386397141,-9.718602175683781L-179.17556508455257,-17.47785954722972L-108.36198809617952,-12.820113045480392zM-110.83327386397141,-17.6638703499023L-108.36198809617952,-20.76538121969891L-176.70427931676068,-28.524638591244845z" style="fill:rgb(153,221,255); fill-opacity: 0.4"></path><path d="M-108.36198809617952,-20.765381219698913L-108.36198809617952,-12.820113045480397M-108.36198809617952,-12.820113045480397L-110.83327386397141,-9.718602175683786M-108.36199185002336,-20.765381209642015L-108.36199185002336,-12.820113035423502M-108.36199185002336,-12.820113035423502L-110.83327761781526,-9.718602165626894M-108.36199185002336,-12.820113035423502L-83.62153768051724,-13.70099525367255M4.768892557957738,-90.63005638182642L4.768892557957738,19.514743544412468M4.768892557957738,19.514743544412468L-29.490401211037376,62.51081198818195" style="fill:none;stroke:rgb(0,0,0);stroke-width:1;stroke-linecap:round"></path><path d="M-322.39139325564383,-91.43175221798218L-276.71233280204876,-148.75984610552482L-294.7656612113693,-150.80953479812132zM4.768892557957741,19.51474354441247L-74.96377792078952,10.462276907488356L-74.96377792078952,-99.68252301875053z" style="fill:rgb(238,238,238); fill-opacity: 0.47"></path><path d="M-179.17556508455257,-17.47785954722972L-110.83327386397141,-9.718602175683781L-110.83327386397141,-17.6638703499023z" style="fill:rgb(153,221,255); fill-opacity: 0.4"></path><path d="M-108.36198809617952,-20.765381219698913L-110.83327386397141,-17.6638703499023M-108.36199185002336,-20.765381209642015L-110.83327761781526,-17.66387033984541M-108.36199185002336,-20.765381209642015L-83.62153768051724,-13.70099525367255" style="fill:none;stroke:rgb(0,0,0);stroke-width:1;stroke-linecap:round"></path><path d="M-108.3619881900762,-20.76538123035949L-108.3619881900762,-12.820113056140976L-110.8332739578681,-9.718602186344365z" style="fill:rgb(255,187,187); fill-opacity: 0.4"></path><path d="M-110.83327386397141,-9.718602175683781L-108.36198809617952,-12.820113045480392L-108.36198809617952,-20.76538121969891z" style="fill:rgb(153,221,255); fill-opacity: 0.4"></path><path d="M-294.7656612113693,-3.9497948278488546L-340.44472166496445,53.3782990596938L-340.44472166496445,-93.48144091057866zM-238.05140646456152,65.00354708073897L-295.00331320311506,58.537499567663495L-192.37234601096645,7.6754531931963z" style="fill:rgb(238,238,238); fill-opacity: 0.47"></path><path d="M-108.3619881900762,-20.76538123035949L-110.8332739578681,-9.718602186344365L-110.8332739578681,-17.663870360562886z" style="fill:rgb(255,187,187); fill-opacity: 0.4"></path><path d="M-110.83327386397141,-17.6638703499023L-110.83327386397141,-9.718602175683781L-108.36198809617952,-20.76538121969891z" style="fill:rgb(153,221,255); fill-opacity: 0.4"></path><path d="M-108.3619881900762,-12.820113056140976L-108.3619881900762,-20.76538123035949L-83.62153407412627,-13.700995578968012z" style="fill:rgb(255,187,187); fill-opacity: 0.4"></path><path d="M-110.83327386397141,-17.6638703499023L-110.83327386397141,-9.718602175683786M-110.83327761781526,-9.718602165626894L-110.83327761781526,-17.66387033984541M-110.83327761781526,-9.718602165626894L-83.62153768051724,-13.70099525367255" style="fill:none;stroke:rgb(0,0,0);stroke-width:1;stroke-linecap:round"></path><path d="M-110.8332739578681,-9.718602186344365L-108.3619881900762,-12.820113056140976L-83.62153407412627,-13.700995578968012z" style="fill:rgb(255,187,187); fill-opacity: 0.4"></path><path d="M-99.49691633993797,-115.5537762103636L-139.46609345123306,-65.39169504470753M-110.83327761781526,-17.66387033984541L-83.62153768051724,-13.70099525367255" style="fill:none;stroke:rgb(0,0,0);stroke-width:1;stroke-linecap:round"></path><path d="M-108.3619881900762,-20.76538123035949L-110.8332739578681,-17.663870360562886L-83.62153407412627,-13.700995578968012zM-110.8332739578681,-17.663870360562886L-110.8332739578681,-9.718602186344365L-83.62153407412627,-13.700995578968012z" style="fill:rgb(255,187,187); fill-opacity: 0.4"></path><path d="M-167.8392075605191,-123.31303358190955L-167.83920756051913,5.189236366346124L-207.80838467181422,-73.15095241625347zM-139.46609345123306,63.110574903548134L-99.49691633993798,12.948493737892061L-99.49691633993795,-115.55377621036362zM-249.32425274951999,1.2094056801208306L-295.00331320311506,58.537499567663495L-295.00331320311506,-88.32224040260897zM-238.05140646456152,-81.8561928895335L-192.37234601096645,-139.18428677707615L-249.32425274951999,-145.65033429015162z" style="fill:rgb(238,238,238); fill-opacity: 0.47"></path><path d="M120.42508747778334,27.374206285427785L29.30203251700849,17.028529790033208M29.3020325170085,-74.75881021711983L29.30203251700849,17.028529790033208M29.30203251700849,17.028529790033208L0.7526189479109879,52.858589455691124" style="fill:none;stroke:rgb(0,0,0);stroke-width:1;stroke-linecap:round"></path><path d="M-109.22307168978465,53.45834535125785L-74.96377792078952,10.462276907488356L4.768892557957741,19.51474354441247z" style="fill:rgb(238,238,238); fill-opacity: 0.47"></path><path d="M-340.1216607857334,-138.17363222373842h28.60009162839816v14.300045814199079h-28.60009162839816z" style="fill:rgb(255,255,255)"></path><path d="M4.768892557957746,-90.63005638182639L4.768892557957741,19.51474354441247L-74.96377792078952,-99.68252301875053z" style="fill:rgb(238,238,238); fill-opacity: 0.47"></path><path d="M4.768892557957738,-90.63005638182642L-74.96377792078951,-99.68252301875053M-74.96377792078951,-99.68252301875053L-109.22307168978462,-56.686454574981035" style="fill:none;stroke:rgb(0,0,0);stroke-width:1;stroke-linecap:round"></path><path d="M-322.39139325564383,-91.43175221798218L-322.39139325564383,55.427987752290285L-276.71233280204876,-148.75984610552482z" style="fill:rgb(238,238,238); fill-opacity: 0.47"></path><path d="M-340.4447216649644,-93.48144091057866L-340.4447216649644,53.37829905969381M-340.4447216649644,53.37829905969381L-322.3913932556438,55.42798775229028M-311.35510691032147,-42.34606256193822L-329.40843531964214,-44.39575125453469M-329.40843531964214,-52.3410194287532L-329.40843531964214,-44.39575125453469M-329.40843531964214,-44.39575125453469L-331.879721087434,-41.29424038473808" style="fill:none;stroke:rgb(0,0,0);stroke-width:1;stroke-linecap:round"></path><path d="M-139.46609345123306,63.110574903548134L-207.80838467181422,55.35131753200219L-99.49691633993798,12.948493737892061z" style="fill:rgb(238,238,238); fill-opacity: 0.47"></path><path d="M-311.3551069103215,-42.34606256193822L-329.40843531964214,-44.39575125453469L-329.40843531964214,-52.34101942875321z" style="fill:rgb(153,221,255); fill-opacity: 0.4"></path><path d="M-220.652048122514,-64.92789465739497L-277.6039548610675,-71.39394217047044M-277.6039548610675,-76.69078761994945L-277.6039548610675,-71.39394217047044M-277.6039548610675,-71.39394217047044L-279.2514787062621,-69.3262682572727" style="fill:none;stroke:rgb(0,0,0);stroke-width:1;stroke-linecap:round"></path><path d="M-294.68025371456747,-133.0144318736603h28.60009162839816v14.300045814199079h-28.60009162839816z" style="fill:rgb(255,255,255)"></path><path d="M-311.35510691032147,-50.29133073615672L-329.40843531964214,-52.3410194287532M-329.40843531964214,-52.3410194287532L-331.879721087434,-49.239508558956594" style="fill:none;stroke:rgb(0,0,0);stroke-width:1;stroke-linecap:round"></path><path d="M-331.879721087434,-41.29424038473808L-329.40843531964214,-44.39575125453469L-311.3551069103215,-42.34606256193822zM-329.40843531964214,-52.34101942875321L-329.40843531964214,-44.39575125453469L-331.879721087434,-49.2395085589566z" style="fill:rgb(153,221,255); fill-opacity: 0.4"></path><path d="M-322.3913932556438,-91.43175221798218L-322.3913932556438,55.42798775229028M-311.35510691032147,-50.29133073615672L-311.35510691032147,-42.34606256193822M-311.35510691032147,-42.34606256193822L-313.8263926781134,-39.244551692141606M-311.3551032419854,-50.291329178515404L-311.3551032419854,-42.346061635730074M-311.3551032419854,-42.346061635730074L-313.8263882241767,-39.244551751877225M-311.3551032419854,-42.346061635730074L-285.2026671381054,-41.65842796202159M-220.652048122514,-70.22474010687398L-277.6039548610675,-76.69078761994945M-277.6039548610675,-76.69078761994945L-279.2514787062621,-74.62311370675171" style="fill:none;stroke:rgb(0,0,0);stroke-width:1;stroke-linecap:round"></path><path d="M-347.3656270569385,54.61763958103199h28.60009162839816v14.300045814199079h-28.60009162839816z" style="fill:rgb(255,255,255)"></path><path d="M-311.3551069103215,-50.29133073615672L-311.3551069103215,-42.34606256193822L-329.40843531964214,-52.34101942875321zM-277.60395486106756,-76.69078761994946L-277.60395486106756,-71.39394217047044L-279.25147870626216,-74.62311370675171zM-329.40843531964214,-44.39575125453469L-331.879721087434,-41.29424038473808L-331.879721087434,-49.2395085589566zM-277.60395486106756,-71.39394217047044L-279.25147870626216,-69.3262682572727L-279.25147870626216,-74.62311370675171z" style="fill:rgb(153,221,255); fill-opacity: 0.4"></path><path d="M-167.83920756051913,5.189236366346124L-207.80838467181422,55.35131753200219L-207.80838467181422,-73.15095241625347z" style="fill:rgb(238,238,238); fill-opacity: 0.47"></path><path d="M-331.879721087434,-49.239508558956594L-331.879721087434,-41.29424038473808M-331.879721087434,-41.29424038473808L-313.8263926781134,-39.244551692141606M-279.2514787062621,-74.62311370675171L-279.2514787062621,-69.3262682572727M-279.2514787062621,-69.3262682572727L-222.2995719677086,-62.860220744197235M-311.35510691032147,-50.29133073615672L-313.8263926781134,-47.18981986636012M-311.3551032419854,-50.291329178515404L-313.8263882241767,-47.189819294662556M-311.3551032419854,-50.291329178515404L-285.2026671381054,-41.65842796202159" style="fill:none;stroke:rgb(0,0,0);stroke-width:1;stroke-linecap:round"></path><path d="M-313.82639267811345,-39.244551692141606L-331.879721087434,-41.29424038473808L-311.3551069103215,-42.34606256193822z" style="fill:rgb(153,221,255); fill-opacity: 0.4"></path><path d="M-311.35510707328683,-50.29133075465903L-311.35510707328683,-42.34606258044051L-313.8263928410787,-39.244551710643904z" style="fill:rgb(255,187,187); fill-opacity: 0.4"></path><path d="M-313.82639267811345,-39.244551692141606L-311.3551069103215,-42.34606256193822L-311.3551069103215,-50.29133073615672zM-220.652048122514,-64.92789465739497L-277.60395486106756,-71.39394217047044L-277.60395486106756,-76.69078761994946zM-313.82639267811345,-47.18981986636012L-311.3551069103215,-50.29133073615672L-329.40843531964214,-52.34101942875321zM-279.25147870626216,-69.3262682572727L-277.60395486106756,-71.39394217047044L-220.652048122514,-64.92789465739497zM-331.879721087434,-49.2395085589566L-313.82639267811345,-47.18981986636012L-329.40843531964214,-52.34101942875321z" style="fill:rgb(153,221,255); fill-opacity: 0.4"></path><path d="M-279.2514787062621,-74.62311370675171L-222.2995719677086,-68.15706619367623" style="fill:none;stroke:rgb(0,0,0);stroke-width:1;stroke-linecap:round"></path><path d="M120.42508747778334,27.374206285427785L29.30203251700849,17.028529790033208L29.3020325170085,-74.75881021711983z" style="fill:rgb(238,238,238); fill-opacity: 0.47"></path><path d="M-311.35510707328683,-42.34606258044051L-311.35510707328683,-50.29133075465903L-285.2026709694069,-41.65842953816521z" style="fill:rgb(255,187,187); fill-opacity: 0.4"></path><path d="M-331.879721087434,-49.239508558956594L-313.8263926781134,-47.18981986636012" style="fill:none;stroke:rgb(0,0,0);stroke-width:1;stroke-linecap:round"></path><path d="M-331.879721087434,-49.2395085589566L-331.879721087434,-41.29424038473808L-313.82639267811345,-47.18981986636012z" style="fill:rgb(153,221,255); fill-opacity: 0.4"></path><path d="M-313.8263928410787,-39.244551710643904L-311.35510707328683,-42.34606258044051L-285.2026709694069,-41.65842953816521z" style="fill:rgb(255,187,187); fill-opacity: 0.4"></path><path d="M-331.879721087434,-41.29424038473808L-313.82639267811345,-39.244551692141606L-313.82639267811345,-47.18981986636012z" style="fill:rgb(153,221,255); fill-opacity: 0.4"></path><path d="M-74.96377792078952,-99.68252301875053L-74.96377792078952,10.462276907488356L-109.22307168978465,-56.686454574981035z" style="fill:rgb(238,238,238); fill-opacity: 0.47"></path><path d="M-311.35510707328683,-50.29133075465903L-313.8263928410787,-39.244551710643904L-313.8263928410787,-47.18981988486242z" style="fill:rgb(255,187,187); fill-opacity: 0.4"></path><path d="M-313.82639267811345,-47.18981986636012L-313.82639267811345,-39.244551692141606L-311.3551069103215,-50.29133073615672z" style="fill:rgb(153,221,255); fill-opacity: 0.4"></path><path d="M-295.00331320311506,-88.32224040260897L-295.00331320311506,58.537499567663495M-295.00331320311506,58.537499567663495L-238.0514064645615,65.00354708073897M-313.8263882241767,-39.244551751877225L-313.8263882241767,-47.189819294662556M-313.8263882241767,-39.244551751877225L-285.2026671381054,-41.65842796202159M-313.8263926781134,-47.18981986636012L-313.8263926781134,-39.244551692141606" style="fill:none;stroke:rgb(0,0,0);stroke-width:1;stroke-linecap:round"></path><path d="M-279.25147870626216,-74.62311370675171L-222.2995719677086,-68.15706619367623L-277.60395486106756,-76.69078761994946z" style="fill:rgb(153,221,255); fill-opacity: 0.4"></path><path d="M-139.46609345123304,-65.39169504470753L-99.49691633993795,-115.55377621036362L-167.8392075605191,-123.31303358190955z" style="fill:rgb(238,238,238); fill-opacity: 0.47"></path><path d="M-311.35510707328683,-50.29133075465903L-313.8263928410787,-47.18981988486242L-285.2026709694069,-41.65842953816521z" style="fill:rgb(255,187,187); fill-opacity: 0.4"></path><path d="M4.768892557957738,-90.63005638182642L-29.490401211037376,-47.633987938056926" style="fill:none;stroke:rgb(0,0,0);stroke-width:1;stroke-linecap:round"></path><path d="M-340.44472166496445,-93.48144091057866L-322.39139325564383,-91.43175221798218L-294.7656612113693,-150.80953479812132z" style="fill:rgb(238,238,238); fill-opacity: 0.47"></path><path d="M-279.25147870626216,-74.62311370675171L-279.25147870626216,-69.3262682572727L-222.2995719677086,-68.15706619367623z" style="fill:rgb(153,221,255); fill-opacity: 0.4"></path><path d="M120.42508747778335,-64.41313372172526L120.42508747778334,27.374206285427785M120.42508747778334,27.374206285427785L91.87567390868585,63.204265951085695" style="fill:none;stroke:rgb(0,0,0);stroke-width:1;stroke-linecap:round"></path><path d="M-220.652048122514,-70.22474010687398L-220.652048122514,-64.92789465739497L-277.60395486106756,-76.69078761994946z" style="fill:rgb(153,221,255); fill-opacity: 0.4"></path><path d="M-313.8263928410787,-47.18981988486242L-313.8263928410787,-39.244551710643904L-285.2026709694069,-41.65842953816521z" style="fill:rgb(255,187,187); fill-opacity: 0.4"></path><path d="M-313.8263882241767,-47.189819294662556L-285.2026671381054,-41.65842796202159" style="fill:none;stroke:rgb(0,0,0);stroke-width:1;stroke-linecap:round"></path><path d="M-222.2995719677086,-62.860220744197235L-279.25147870626216,-69.3262682572727L-220.652048122514,-64.92789465739497z" style="fill:rgb(153,221,255); fill-opacity: 0.4"></path><path d="M-12.581779149427597,0.18468768575336447L-92.31444962817484,-8.867778951170747M-92.31444962817483,-16.81304712538926L-92.31444962817484,-8.867778951170747M-92.31444962817484,-8.867778951170747L-94.78573539596673,-5.766268081374136" style="fill:none;stroke:rgb(0,0,0);stroke-width:1;stroke-linecap:round"></path><path d="M-222.2995719677086,-68.15706619367623L-220.652048122514,-70.22474010687398L-277.60395486106756,-76.69078761994946z" style="fill:rgb(153,221,255); fill-opacity: 0.4"></path><path d="M-220.65205544064065,-70.22474190320251L-220.65205544064065,-64.9278964537235M-220.65205544064065,-64.9278964537235L-222.29957928583525,-62.86022254052576M-220.65205544064065,-64.9278964537235L-193.30474676660168,-59.7514552005558M-220.652048122514,-70.22474010687398L-220.652048122514,-64.92789465739497M-220.652048122514,-64.92789465739497L-222.2995719677086,-62.860220744197235" style="fill:none;stroke:rgb(0,0,0);stroke-width:1;stroke-linecap:round"></path><path d="M-279.25147870626216,-69.3262682572727L-222.2995719677086,-62.860220744197235L-222.2995719677086,-68.15706619367623z" style="fill:rgb(153,221,255); fill-opacity: 0.4"></path><path d="M-29.49040121103737,62.51081198818196L4.768892557957741,19.51474354441247L4.768892557957746,-90.63005638182639z" style="fill:rgb(238,238,238); fill-opacity: 0.47"></path><path d="M-12.581779149427591,-7.76058048846515L-92.31444962817483,-16.81304712538926M-92.31444962817483,-16.81304712538926L-94.78573539596673,-13.711536255592652M-220.65205544064065,-70.22474190320251L-222.29957928583525,-68.15706799000478M-220.65205544064065,-70.22474190320251L-193.30474676660168,-59.7514552005558M-220.652048122514,-70.22474010687398L-222.2995719677086,-68.15706619367623" style="fill:none;stroke:rgb(0,0,0);stroke-width:1;stroke-linecap:round"></path><path d="M-222.2995719677086,-62.860220744197235L-220.652048122514,-64.92789465739497L-220.652048122514,-70.22474010687398z" style="fill:rgb(153,221,255); fill-opacity: 0.4"></path><path d="M-220.65204689479586,-70.22473996748472L-220.65204689479586,-64.92789451800571L-222.29957073999046,-62.86022060480798z" style="fill:rgb(255,187,187); fill-opacity: 0.4"></path><path d="M-238.05140646456152,-81.8561928895335L-238.05140646456152,65.00354708073897L-192.37234601096645,-139.18428677707615z" style="fill:rgb(238,238,238); fill-opacity: 0.47"></path><path d="M-220.65204689479586,-64.92789451800571L-220.65204689479586,-70.22473996748472L-193.30473810369884,-59.751454769489214z" style="fill:rgb(255,187,187); fill-opacity: 0.4"></path><path d="M-92.31444962817486,-16.813047125389264L-92.31444962817486,-8.867778951170749L-94.78573539596675,-13.711536255592653z" style="fill:rgb(153,221,255); fill-opacity: 0.4"></path><path d="M-210.3402655328018,-114.26013866439968h28.60009162839816v14.300045814199079h-28.60009162839816z" style="fill:rgb(255,255,255)"></path><path d="M-222.29957073999046,-62.86022060480798L-220.65204689479586,-64.92789451800571L-193.30473810369884,-59.751454769489214z" style="fill:rgb(255,187,187); fill-opacity: 0.4"></path><path d="M-340.44472166496445,53.3782990596938L-322.39139325564383,55.427987752290285L-322.39139325564383,-91.43175221798218z" style="fill:rgb(238,238,238); fill-opacity: 0.47"></path><path d="M-282.4749294304727,61.98501949924116h28.60009162839816v14.300045814199079h-28.60009162839816z" style="fill:rgb(255,255,255)"></path><path d="M-92.31444962817486,-8.867778951170749L-94.78573539596675,-5.766268081374139L-94.78573539596675,-13.711536255592653zM-222.2995719677086,-68.15706619367623L-222.2995719677086,-62.860220744197235L-220.652048122514,-70.22474010687398z" style="fill:rgb(153,221,255); fill-opacity: 0.4"></path><path d="M-220.65204689479586,-70.22473996748472L-222.29957073999046,-62.86022060480798L-222.29957073999046,-68.157066054287z" style="fill:rgb(255,187,187); fill-opacity: 0.4"></path><path d="M-222.29957928583525,-62.86022254052576L-222.29957928583525,-68.15706799000478M-222.29957928583525,-62.86022254052576L-193.30474676660168,-59.7514552005558M-222.2995719677086,-68.15706619367623L-222.2995719677086,-62.860220744197235" style="fill:none;stroke:rgb(0,0,0);stroke-width:1;stroke-linecap:round"></path><path d="M-220.65204689479586,-70.22473996748472L-222.29957073999046,-68.157066054287L-193.30473810369884,-59.751454769489214z" style="fill:rgb(255,187,187); fill-opacity: 0.4"></path><path d="M-94.78573539596673,-13.711536255592652L-94.78573539596673,-5.766268081374136M-94.78573539596673,-5.766268081374136L-15.053064917219489,3.286198555549975" style="fill:none;stroke:rgb(0,0,0);stroke-width:1;stroke-linecap:round"></path><path d="M-222.29957073999046,-68.157066054287L-222.29957073999046,-62.86022060480798L-193.30473810369884,-59.751454769489214z" style="fill:rgb(255,187,187); fill-opacity: 0.4"></path><path d="M-12.581779149427586,0.18468768575336447L-92.31444962817486,-8.867778951170749L-92.31444962817486,-16.813047125389264z" style="fill:rgb(153,221,255); fill-opacity: 0.4"></path><path d="M-222.29957928583525,-68.15706799000478L-193.30474676660168,-59.7514552005558M120.42508747778335,-64.41313372172526L29.3020325170085,-74.75881021711983M29.3020325170085,-74.75881021711983L0.752618947910999,-38.92875055146191" style="fill:none;stroke:rgb(0,0,0);stroke-width:1;stroke-linecap:round"></path><path d="M-94.78573539596675,-5.766268081374139L-92.31444962817486,-8.867778951170749L-12.581779149427586,0.18468768575336447z" style="fill:rgb(153,221,255); fill-opacity: 0.4"></path><path d="M0.7526189479109935,52.858589455691124L29.30203251700849,17.028529790033208L120.42508747778334,27.374206285427785z" style="fill:rgb(238,238,238); fill-opacity: 0.47"></path><path d="M-94.78573539596673,-13.711536255592652L-15.053064917219483,-4.65906961866854M-238.0514064645615,-81.8561928895335L-238.0514064645615,65.00354708073897" style="fill:none;stroke:rgb(0,0,0);stroke-width:1;stroke-linecap:round"></path><path d="M-295.00331320311506,-88.32224040260897L-238.05140646456152,-81.8561928895335L-249.32425274951999,-145.65033429015162z" style="fill:rgb(238,238,238); fill-opacity: 0.47"></path><path d="M-207.80838467181422,-73.15095241625347L-207.80838467181422,55.3513175320022M-207.80838467181422,55.3513175320022L-139.46609345123306,63.110574903548134" style="fill:none;stroke:rgb(0,0,0);stroke-width:1;stroke-linecap:round"></path><path d="M120.42508747778334,-64.41313372172525L120.42508747778334,27.374206285427785L29.3020325170085,-74.75881021711983zM-29.49040121103737,62.51081198818196L-109.22307168978465,53.45834535125785L4.768892557957741,19.51474354441247zM-74.96377792078952,10.462276907488356L-109.22307168978465,53.45834535125785L-109.22307168978465,-56.686454574981035z" style="fill:rgb(238,238,238); fill-opacity: 0.47"></path><path d="M-94.78573539596675,-13.711536255592653L-15.053064917219478,-4.659069618668541L-92.31444962817486,-16.813047125389264zM-12.581779149427586,-7.76058048846515L-12.581779149427586,0.18468768575336447L-92.31444962817486,-16.813047125389264zM-94.78573539596675,-13.711536255592653L-94.78573539596675,-5.766268081374139L-15.053064917219478,-4.659069618668541z" style="fill:rgb(153,221,255); fill-opacity: 0.4"></path><path d="M114.92672271641646,-35.34731849444342L23.803667755641612,-45.692994989838M23.803667755641616,-53.63826316405652L23.803667755641612,-45.692994989838M23.803667755641612,-45.692994989838L21.33238198784972,-42.59148412004139M247.47166005327497,36.52687520868978L144.95822583433403,24.887989447917022M144.95822583433403,-48.541880537219214L144.95822583433403,24.887989447917022M144.95822583433403,24.887989447917022L122.1186956075365,53.552036391688354" style="fill:none;stroke:rgb(0,0,0);stroke-width:1;stroke-linecap:round"></path><path d="M-365.43247671756353,-25.032936531353013h28.60009162839816v14.300045814199079h-28.60009162839816z" style="fill:rgb(255,255,255)"></path><path d="M-15.053064917219478,3.286198555549975L-94.78573539596675,-5.766268081374139L-12.581779149427586,0.18468768575336447zM-15.053064917219478,-4.659069618668541L-12.581779149427586,-7.76058048846515L-92.31444962817486,-16.813047125389264z" style="fill:rgb(153,221,255); fill-opacity: 0.4"></path><path d="M114.92672271641646,-43.29258666866194L23.803667755641616,-53.63826316405652M23.803667755641616,-53.63826316405652L21.332381987849725,-50.53675229425991" style="fill:none;stroke:rgb(0,0,0);stroke-width:1;stroke-linecap:round"></path><path d="M23.803667755641612,-53.63826316405652L23.803667755641612,-45.692994989838L21.33238198784972,-50.53675229425991z" style="fill:rgb(153,221,255); fill-opacity: 0.4"></path><path d="M-12.581779149427591,-7.76058048846515L-12.581779149427597,0.18468768575336447M-12.581779149427597,0.18468768575336447L-15.053064917219489,3.286198555549975M-12.581778406248834,-7.760580553717097L-12.581778406248834,0.184687620501418M-12.581778406248834,0.184687620501418L-15.053064149490709,3.286198459487287M-12.581778406248834,0.184687620501418L13.813435930112988,-1.0980840028507708" style="fill:none;stroke:rgb(0,0,0);stroke-width:1;stroke-linecap:round"></path><path d="M-94.78573539596675,-5.766268081374139L-15.053064917219478,3.286198555549975L-15.053064917219478,-4.659069618668541zM23.803667755641612,-45.692994989838L21.33238198784972,-42.59148412004139L21.33238198784972,-50.53675229425991z" style="fill:rgb(153,221,255); fill-opacity: 0.4"></path><path d="M-340.44472166496445,-93.48144091057866L-340.44472166496445,53.3782990596938L-322.39139325564383,-91.43175221798218zM-29.49040121103737,-47.63398793805692L4.768892557957746,-90.63005638182639L-74.96377792078952,-99.68252301875053z" style="fill:rgb(238,238,238); fill-opacity: 0.47"></path><path d="M21.332381987849725,-50.53675229425991L21.33238198784972,-42.59148412004139M21.33238198784972,-42.59148412004139L112.45543694862457,-32.245807624646815M-12.581779149427591,-7.76058048846515L-15.053064917219483,-4.65906961866854M-12.581778406248834,-7.760580553717097L-15.053064149490709,-4.6590697147312286M-12.581778406248834,-7.760580553717097L13.813435930112988,-1.0980840028507708" style="fill:none;stroke:rgb(0,0,0);stroke-width:1;stroke-linecap:round"></path><path d="M-295.00331320311506,58.537499567663495L-238.05140646456152,65.00354708073897L-238.05140646456152,-81.8561928895335z" style="fill:rgb(238,238,238); fill-opacity: 0.47"></path><path d="M-15.053064917219478,3.286198555549975L-12.581779149427586,0.18468768575336447L-12.581779149427586,-7.76058048846515z" style="fill:rgb(153,221,255); fill-opacity: 0.4"></path><path d="M-12.581777953008338,-7.760580352629423L-12.581777953008338,0.18468782158909233L-15.05306372080023,3.2861986913857044z" style="fill:rgb(255,187,187); fill-opacity: 0.4"></path><path d="M-189.58480905880324,59.4454441837205h28.60009162839816v14.300045814199079h-28.60009162839816z" style="fill:rgb(255,255,255)"></path><path d="M29.3020325170085,-74.75881021711983L29.30203251700849,17.028529790033208L0.752618947910999,-38.92875055146191zM-139.46609345123304,-65.39169504470753L-139.46609345123306,63.110574903548134L-99.49691633993795,-115.55377621036362z" style="fill:rgb(238,238,238); fill-opacity: 0.47"></path><path d="M114.92672271641646,-35.34731849444342L23.803667755641612,-45.692994989838L23.803667755641612,-53.63826316405652z" style="fill:rgb(153,221,255); fill-opacity: 0.4"></path><path d="M-12.581777953008338,0.18468782158909233L-12.581777953008338,-7.760580352629423L13.813436102002225,-1.0980843411963792z" style="fill:rgb(255,187,187); fill-opacity: 0.4"></path><path d="M21.332381987849725,-50.53675229425991L112.4554369486246,-40.19107579886533" style="fill:none;stroke:rgb(0,0,0);stroke-width:1;stroke-linecap:round"></path><path d="M-114.60989551223817,-94.21263589676828h28.60009162839816v14.300045814199079h-28.60009162839816z" style="fill:rgb(255,255,255)"></path><path d="M21.33238198784972,-42.59148412004139L23.803667755641612,-45.692994989838L114.92672271641646,-35.34731849444342z" style="fill:rgb(153,221,255); fill-opacity: 0.4"></path><path d="M-15.05306372080023,3.2861986913857044L-12.581777953008338,0.18468782158909233L13.813436102002225,-1.0980843411963792z" style="fill:rgb(255,187,187); fill-opacity: 0.4"></path><path d="M-15.053064917219478,-4.659069618668541L-15.053064917219478,3.286198555549975L-12.581779149427586,-7.76058048846515z" style="fill:rgb(153,221,255); fill-opacity: 0.4"></path><path d="M-12.581777953008338,-7.760580352629423L-15.05306372080023,3.2861986913857044L-15.05306372080023,-4.659069482832813z" style="fill:rgb(255,187,187); fill-opacity: 0.4"></path><path d="M-15.053064917219483,-4.65906961866854L-15.053064917219489,3.286198555549975M-15.053064149490709,3.286198459487287L-15.053064149490709,-4.6590697147312286M-15.053064149490709,3.286198459487287L13.813435930112988,-1.0980840028507708" style="fill:none;stroke:rgb(0,0,0);stroke-width:1;stroke-linecap:round"></path><path d="M-319.9910696463976,-19.873736181274882h28.60009162839816v14.300045814199079h-28.60009162839816z" style="fill:rgb(255,255,255)"></path><path d="M-12.581777953008338,-7.760580352629423L-15.05306372080023,-4.659069482832813L13.813436102002225,-1.0980843411963792z" style="fill:rgb(255,187,187); fill-opacity: 0.4"></path><path d="M-207.80838467181422,-73.15095241625347L-139.46609345123304,-65.39169504470753L-167.8392075605191,-123.31303358190955z" style="fill:rgb(238,238,238); fill-opacity: 0.47"></path><path d="M-15.05306372080023,-4.659069482832813L-15.05306372080023,3.2861986913857044L13.813436102002225,-1.0980843411963792z" style="fill:rgb(255,187,187); fill-opacity: 0.4"></path><path d="M-139.46609345123306,-65.39169504470753L-139.46609345123306,63.110574903548134M-15.053064149490709,-4.6590697147312286L13.813435930112988,-1.0980840028507708" style="fill:none;stroke:rgb(0,0,0);stroke-width:1;stroke-linecap:round"></path><path d="M21.33238198784972,-50.53675229425991L112.45543694862457,-40.191075798865334L23.803667755641612,-53.63826316405652z" style="fill:rgb(153,221,255); fill-opacity: 0.4"></path><path d="M120.42508747778335,-64.41313372172526L91.87567390868585,-28.58307405606733M-109.22307168978462,-56.686454574981035L-109.22307168978462,53.45834535125785M-109.22307168978462,53.45834535125785L-29.490401211037376,62.51081198818195" style="fill:none;stroke:rgb(0,0,0);stroke-width:1;stroke-linecap:round"></path><path d="M21.33238198784972,-50.53675229425991L21.33238198784972,-42.59148412004139L112.45543694862457,-40.191075798865334zM114.92672271641646,-43.29258666866194L114.92672271641646,-35.34731849444342L23.803667755641612,-53.63826316405652z" style="fill:rgb(153,221,255); fill-opacity: 0.4"></path><path d="M247.47166005327492,36.52687520868978L144.95822583433403,24.88798944791703L144.95822583433403,-48.5418805372192zM91.87567390868585,63.2042659510857L120.42508747778334,27.374206285427785L120.42508747778334,-64.41313372172525z" style="fill:rgb(238,238,238); fill-opacity: 0.47"></path><path d="M112.45543694862457,-32.245807624646815L21.33238198784972,-42.59148412004139L114.92672271641646,-35.34731849444342zM112.45543694862457,-40.191075798865334L114.92672271641646,-43.29258666866194L23.803667755641612,-53.63826316405652z" style="fill:rgb(153,221,255); fill-opacity: 0.4"></path><path d="M-295.00331320311506,-88.32224040260897L-295.00331320311506,58.537499567663495L-238.05140646456152,-81.8561928895335z" style="fill:rgb(238,238,238); fill-opacity: 0.47"></path><path d="M368.83773671290044,55.57779216670382L277.7146817521256,45.23211567130924M277.7146817521256,-46.55522433584379L277.7146817521256,45.23211567130924M277.7146817521256,45.23211567130924L249.16526818302813,81.06217533696716M-340.4447216649644,-93.48144091057866L-322.3913932556438,-91.43175221798218M114.92672271641646,-43.29258666866194L114.92672271641646,-35.34731849444342M114.92672271641646,-35.34731849444342L112.45543694862457,-32.245807624646815M114.92672205147525,-43.29258648878648L114.92672205147525,-35.34731831456797M114.92672205147525,-35.34731831456797L112.45543667648363,-32.24580793774324M114.92672205147525,-35.34731831456797L139.57101870895943,-27.22673406813831" style="fill:none;stroke:rgb(0,0,0);stroke-width:1;stroke-linecap:round"></path><path d="M21.33238198784972,-42.59148412004139L112.45543694862457,-32.245807624646815L112.45543694862457,-40.191075798865334z" style="fill:rgb(153,221,255); fill-opacity: 0.4"></path><path d="M29.30203251700849,17.028529790033208L0.7526189479109935,52.858589455691124L0.752618947910999,-38.92875055146191zM-207.80838467181422,55.35131753200219L-139.46609345123306,63.110574903548134L-139.46609345123304,-65.39169504470753z" style="fill:rgb(238,238,238); fill-opacity: 0.47"></path><path d="M-232.79614019412716,-13.881182553060558h28.60009162839816v14.300045814199079h-28.60009162839816z" style="fill:rgb(255,255,255)"></path><path d="M114.92672271641646,-43.29258666866194L112.4554369486246,-40.19107579886533M114.92672205147525,-43.29258648878648L112.45543667648363,-40.19107611196175M114.92672205147525,-43.29258648878648L139.57101870895943,-27.22673406813831M247.47166005327497,-36.90299477644645L247.47166005327497,36.52687520868978M247.47166005327497,36.52687520868978L224.6321298264774,65.19092215246111" style="fill:none;stroke:rgb(0,0,0);stroke-width:1;stroke-linecap:round"></path><path d="M114.9267225912209,-43.29258668287605L114.9267225912209,-35.34731850865753L112.455436823429,-32.245807638860924z" style="fill:rgb(255,187,187); fill-opacity: 0.4"></path><path d="M112.45543694862457,-32.245807624646815L114.92672271641646,-35.34731849444342L114.92672271641646,-43.29258666866194z" style="fill:rgb(153,221,255); fill-opacity: 0.4"></path><path d="M247.47166005327497,-36.90299477644645L144.95822583433403,-48.541880537219214M144.95822583433403,-48.541880537219214L122.1186956075365,-19.87783359344788" style="fill:none;stroke:rgb(0,0,0);stroke-width:1;stroke-linecap:round"></path><path d="M91.87567390868585,63.2042659510857L0.7526189479109935,52.858589455691124L120.42508747778334,27.374206285427785z" style="fill:rgb(238,238,238); fill-opacity: 0.47"></path><path d="M114.9267225912209,-35.34731850865753L114.9267225912209,-43.29258668287605L139.57101886724362,-27.22673281411531z" style="fill:rgb(255,187,187); fill-opacity: 0.4"></path><path d="M-85.30430684833581,58.19907842657064h28.60009162839816v14.300045814199079h-28.60009162839816z" style="fill:rgb(255,255,255)"></path><path d="M114.9267225912209,-43.29258668287605L112.455436823429,-32.245807638860924L112.455436823429,-40.191075813079436z" style="fill:rgb(255,187,187); fill-opacity: 0.4"></path><path d="M112.45543694862457,-40.191075798865334L112.45543694862457,-32.245807624646815L114.92672271641646,-43.29258666866194z" style="fill:rgb(153,221,255); fill-opacity: 0.4"></path><path d="M112.45543667648363,-32.24580793774324L112.45543667648363,-40.19107611196175M112.45543667648363,-32.24580793774324L139.57101870895943,-27.22673406813831M112.4554369486246,-40.19107579886533L112.45543694862457,-32.245807624646815" style="fill:none;stroke:rgb(0,0,0);stroke-width:1;stroke-linecap:round"></path><path d="M112.455436823429,-32.245807638860924L114.9267225912209,-35.34731850865753L139.57101886724362,-27.22673281411531z" style="fill:rgb(255,187,187); fill-opacity: 0.4"></path><path d="M122.11869560753648,53.552036391688354L144.95822583433403,24.88798944791703L247.47166005327492,36.52687520868978zM-29.49040121103737,-47.63398793805692L-29.49040121103737,62.51081198818196L4.768892557957746,-90.63005638182639zM-109.22307168978465,-56.686454574981035L-29.49040121103737,-47.63398793805692L-74.96377792078952,-99.68252301875053z" style="fill:rgb(238,238,238); fill-opacity: 0.47"></path><path d="M114.9267225912209,-43.29258668287605L112.455436823429,-40.191075813079436L139.57101886724362,-27.22673281411531z" style="fill:rgb(255,187,187); fill-opacity: 0.4"></path><path d="M112.45543667648363,-40.19107611196175L139.57101870895943,-27.22673406813831" style="fill:none;stroke:rgb(0,0,0);stroke-width:1;stroke-linecap:round"></path><path d="M112.455436823429,-40.191075813079436L112.455436823429,-32.245807638860924L139.57101886724362,-27.22673281411531z" style="fill:rgb(255,187,187); fill-opacity: 0.4"></path><path d="M-7.48914365287652,-72.87192357076609h28.60009162839816v14.300045814199079h-28.60009162839816z" style="fill:rgb(255,255,255)"></path><path d="M-207.80838467181422,-73.15095241625347L-207.80838467181422,55.35131753200219L-139.46609345123304,-65.39169504470753z" style="fill:rgb(238,238,238); fill-opacity: 0.47"></path><path d="M-295.00331320311506,-88.32224040260897L-238.0514064645615,-81.8561928895335M237.97002487482516,27.914784818254837L135.45659065588418,16.275899057482086M135.45659065588418,8.33063088326357L135.45659065588418,16.275899057482086M135.45659065588418,16.275899057482086L132.9853048880923,19.37740992727869" style="fill:none;stroke:rgb(0,0,0);stroke-width:1;stroke-linecap:round"></path><path d="M91.87567390868585,-28.58307405606733L120.42508747778334,-64.41313372172525L29.3020325170085,-74.75881021711983zM247.47166005327492,-36.90299477644645L247.47166005327492,36.52687520868978L144.95822583433403,-48.5418805372192z" style="fill:rgb(238,238,238); fill-opacity: 0.47"></path><path d="M-29.490401211037376,-47.633987938056926L-29.490401211037376,62.51081198818195M237.97002487482516,19.969516644036325L135.45659065588418,8.33063088326357M135.45659065588418,8.33063088326357L132.9853048880923,11.432141753060177" style="fill:none;stroke:rgb(0,0,0);stroke-width:1;stroke-linecap:round"></path><path d="M135.45659065588418,8.330630883263566L135.45659065588418,16.275899057482086L132.9853048880923,11.432141753060177z" style="fill:rgb(153,221,255); fill-opacity: 0.4"></path><path d="M0.752618947910999,-38.92875055146191L0.7526189479109879,52.858589455691124M0.7526189479109879,52.858589455691124L91.87567390868585,63.204265951085695" style="fill:none;stroke:rgb(0,0,0);stroke-width:1;stroke-linecap:round"></path><path d="M144.95822583433403,-48.5418805372192L144.95822583433403,24.88798944791703L122.11869560753648,-19.877833593447875z" style="fill:rgb(238,238,238); fill-opacity: 0.47"></path><path d="M135.45659065588418,16.275899057482086L132.9853048880923,19.37740992727869L132.9853048880923,11.432141753060177z" style="fill:rgb(153,221,255); fill-opacity: 0.4"></path><path d="M478.81342735059616,73.33549619022294L399.0807568718489,64.28302955329883M399.0807568718489,-45.86177037294005L399.0807568718489,64.28302955329883M399.0807568718489,64.28302955329883L364.82146310285384,107.27909799706833" style="fill:none;stroke:rgb(0,0,0);stroke-width:1;stroke-linecap:round"></path><path d="M368.8377367129005,55.57779216670382L277.7146817521256,45.23211567130923L277.7146817521256,-46.555224335843796z" style="fill:rgb(238,238,238); fill-opacity: 0.47"></path><path d="M132.9853048880923,11.432141753060177L132.9853048880923,19.37740992727869M132.9853048880923,19.37740992727869L235.49873910703326,31.01629568805145" style="fill:none;stroke:rgb(0,0,0);stroke-width:1;stroke-linecap:round"></path><path d="M-134.21082890305877,-6.595419366475436h28.60009162839816v14.30004581419908h-28.60009162839816z" style="fill:rgb(255,255,255)"></path><path d="M-109.22307168978465,53.45834535125785L-29.49040121103737,62.51081198818196L-29.49040121103737,-47.63398793805692z" style="fill:rgb(238,238,238); fill-opacity: 0.47"></path><path d="M237.9700248748251,27.914784818254837L135.45659065588418,16.275899057482086L135.45659065588418,8.330630883263566z" style="fill:rgb(153,221,255); fill-opacity: 0.4"></path><path d="M-207.80838467181422,-73.15095241625347L-139.46609345123306,-65.39169504470753M132.9853048880923,11.432141753060177L235.49873910703326,23.071027513832934M368.83773671290044,-36.20954784044922L368.83773671290044,55.57779216670382M368.83773671290044,55.57779216670382L340.288323143803,91.40785183236174" style="fill:none;stroke:rgb(0,0,0);stroke-width:1;stroke-linecap:round"></path><path d="M132.9853048880923,19.37740992727869L135.45659065588418,16.275899057482086L237.9700248748251,27.914784818254837z" style="fill:rgb(153,221,255); fill-opacity: 0.4"></path><path d="M-109.22307168978465,-56.686454574981035L-109.22307168978465,53.45834535125785L-29.49040121103737,-47.63398793805692z" style="fill:rgb(238,238,238); fill-opacity: 0.47"></path><path d="M132.9853048880923,11.432141753060177L235.4987391070332,23.071027513832934L135.45659065588418,8.330630883263566z" style="fill:rgb(153,221,255); fill-opacity: 0.4"></path><path d="M144.95822583433403,24.88798944791703L122.11869560753648,53.552036391688354L122.11869560753648,-19.877833593447875z" style="fill:rgb(238,238,238); fill-opacity: 0.47"></path><path d="M132.9853048880923,11.432141753060177L132.9853048880923,19.37740992727869L235.4987391070332,23.071027513832934z" style="fill:rgb(153,221,255); fill-opacity: 0.4"></path><path d="M30.366577200929576,58.24592222779158h28.60009162839816v14.300045814199079h-28.60009162839816z" style="fill:rgb(255,255,255)"></path><path d="M247.47166005327497,-36.90299477644645L224.63212982647747,-8.238947832675118" style="fill:none;stroke:rgb(0,0,0);stroke-width:1;stroke-linecap:round"></path><path d="M237.9700248748251,19.969516644036318L237.9700248748251,27.914784818254837L135.45659065588418,8.330630883263566z" style="fill:rgb(153,221,255); fill-opacity: 0.4"></path><path d="M0.752618947910999,-38.92875055146191L91.87567390868585,-28.58307405606733L29.3020325170085,-74.75881021711983z" style="fill:rgb(238,238,238); fill-opacity: 0.47"></path><path d="M368.83773671290044,-36.20954784044922L277.7146817521256,-46.55522433584379M277.7146817521256,-46.55522433584379L249.16526818302813,-10.725164670185876" style="fill:none;stroke:rgb(0,0,0);stroke-width:1;stroke-linecap:round"></path><path d="M249.16526818302813,81.06217533696714L277.7146817521256,45.23211567130923L368.8377367129005,55.57779216670382z" style="fill:rgb(238,238,238); fill-opacity: 0.47"></path><path d="M577.3987403326257,89.79999403149539L509.0564491120446,82.04073665994946M509.0564491120446,-46.46153328830622L509.0564491120446,82.04073665994946M509.0564491120446,82.04073665994946L469.0872720007496,132.20281782560554" style="fill:none;stroke:rgb(0,0,0);stroke-width:1;stroke-linecap:round"></path><path d="M235.4987391070332,31.016295688051443L132.9853048880923,19.37740992727869L237.9700248748251,27.914784818254837z" style="fill:rgb(153,221,255); fill-opacity: 0.4"></path><path d="M224.6321298264774,65.19092215246111L247.47166005327492,36.52687520868978L247.47166005327492,-36.90299477644645z" style="fill:rgb(238,238,238); fill-opacity: 0.47"></path><path d="M235.4987391070332,23.071027513832934L237.9700248748251,19.969516644036318L135.45659065588418,8.330630883263566z" style="fill:rgb(153,221,255); fill-opacity: 0.4"></path><path d="M-109.22307168978462,-56.686454574981035L-29.490401211037376,-47.633987938056926" style="fill:none;stroke:rgb(0,0,0);stroke-width:1;stroke-linecap:round"></path><path d="M91.87567390868585,-28.58307405606733L91.87567390868585,63.2042659510857L120.42508747778334,-64.41313372172525z" style="fill:rgb(238,238,238); fill-opacity: 0.47"></path><path d="M132.9853048880923,19.37740992727869L235.4987391070332,31.016295688051443L235.4987391070332,23.071027513832934z" style="fill:rgb(153,221,255); fill-opacity: 0.4"></path><path d="M368.8377367129005,-36.20954784044921L368.8377367129005,55.57779216670382L277.7146817521256,-46.555224335843796zM224.6321298264774,65.19092215246111L122.11869560753648,53.552036391688354L247.47166005327492,36.52687520868978z" style="fill:rgb(238,238,238); fill-opacity: 0.47"></path><path d="M111.02199004528306,-50.23800168639308h28.60009162839816v14.300045814199079h-28.60009162839816z" style="fill:rgb(255,255,255)"></path><path d="M237.9700234309946,19.96951631929288L237.9700234309946,27.914785124944576M237.9700234309946,27.914785124944576L235.4987377614028,31.016295871498215M237.9700234309946,27.914785124944576L264.2930813770702,31.4396537790091M237.97002487482516,19.969516644036325L237.97002487482516,27.914784818254837M237.97002487482516,27.914784818254837L235.49873910703326,31.01629568805145M478.81342735059616,-36.80930373601594L478.81342735059616,73.33549619022294M478.81342735059616,73.33549619022294L444.55413358160104,116.33156463399241" style="fill:none;stroke:rgb(0,0,0);stroke-width:1;stroke-linecap:round"></path><path d="M-24.23513577319233,1.9835533784804822h28.60009162839816v14.300045814199079h-28.60009162839816z" style="fill:rgb(255,255,255)"></path><path d="M478.81342735059616,73.33549619022294L399.08075687184885,64.28302955329882L399.08075687184885,-45.86177037294006z" style="fill:rgb(238,238,238); fill-opacity: 0.47"></path><path d="M475.38249704113485,45.88370654969787L395.64982656238755,36.83123991277376M395.64982656238755,28.885971738555245L395.64982656238755,36.83123991277376M395.64982656238755,36.83123991277376L393.1785407945957,39.932750782570366M91.87567390868585,-28.58307405606733L91.87567390868585,63.204265951085695M237.9700234309946,19.96951631929288L235.4987377614028,23.07102706584652M237.9700234309946,19.96951631929288L264.2930813770702,31.4396537790091M237.97002487482516,19.969516644036325L235.49873910703326,23.071027513832934" style="fill:none;stroke:rgb(0,0,0);stroke-width:1;stroke-linecap:round"></path><path d="M235.4987391070332,31.016295688051443L237.9700248748251,27.914784818254837L237.9700248748251,19.969516644036318z" style="fill:rgb(153,221,255); fill-opacity: 0.4"></path><path d="M237.9700260399455,19.969516776318518L237.9700260399455,27.91478495053704L235.4987402721536,31.016295820333646z" style="fill:rgb(255,187,187); fill-opacity: 0.4"></path><path d="M122.1186956075365,-19.87783359344788L122.1186956075365,53.552036391688354M122.1186956075365,53.552036391688354L224.6321298264774,65.19092215246111M475.38249704113485,37.93843837547936L395.64982656238755,28.885971738555245M395.64982656238755,28.885971738555245L393.1785407945957,31.98748260835185" style="fill:none;stroke:rgb(0,0,0);stroke-width:1;stroke-linecap:round"></path><path d="M237.9700260399455,27.91478495053704L237.9700260399455,19.969516776318518L264.29308390658866,31.439653612321482z" style="fill:rgb(255,187,187); fill-opacity: 0.4"></path><path d="M0.7526189479109935,52.858589455691124L91.87567390868585,63.2042659510857L91.87567390868585,-28.58307405606733z" style="fill:rgb(238,238,238); fill-opacity: 0.47"></path><path d="M395.64982656238755,28.885971738555245L395.64982656238755,36.83123991277375L393.1785407945956,31.98748260835185z" style="fill:rgb(153,221,255); fill-opacity: 0.4"></path><path d="M224.6321298264774,-8.23894783267512L247.47166005327492,-36.90299477644645L144.95822583433403,-48.5418805372192z" style="fill:rgb(238,238,238); fill-opacity: 0.47"></path><path d="M235.4987402721536,31.016295820333646L237.9700260399455,27.91478495053704L264.29308390658866,31.439653612321482z" style="fill:rgb(255,187,187); fill-opacity: 0.4"></path><path d="M235.4987391070332,23.071027513832934L235.4987391070332,31.016295688051443L237.9700248748251,19.969516644036318z" style="fill:rgb(153,221,255); fill-opacity: 0.4"></path><path d="M237.9700260399455,19.969516776318518L235.4987402721536,31.016295820333646L235.4987402721536,23.071027646115134z" style="fill:rgb(255,187,187); fill-opacity: 0.4"></path><path d="M235.4987377614028,31.016295871498215L235.4987377614028,23.07102706584652M235.4987377614028,31.016295871498215L264.2930813770702,31.4396537790091M235.49873910703326,23.071027513832934L235.49873910703326,31.01629568805145" style="fill:none;stroke:rgb(0,0,0);stroke-width:1;stroke-linecap:round"></path><path d="M395.64982656238755,36.83123991277375L393.1785407945956,39.932750782570366L393.1785407945956,31.98748260835185z" style="fill:rgb(153,221,255); fill-opacity: 0.4"></path><path d="M237.9700260399455,19.969516776318518L235.4987402721536,23.071027646115134L264.29308390658866,31.439653612321482z" style="fill:rgb(255,187,187); fill-opacity: 0.4"></path><path d="M393.1785407945957,31.98748260835185L393.1785407945957,39.932750782570366M393.1785407945957,39.932750782570366L472.91121127334293,48.985217419494475M664.5936688639266,104.97128201785088L607.6417621253731,98.50523450477542M607.6417621253731,-48.354505465497034L607.6417621253731,98.50523450477542M607.6417621253731,98.50523450477542L561.9627016717781,155.83332839231807" style="fill:none;stroke:rgb(0,0,0);stroke-width:1;stroke-linecap:round"></path><path d="M0.752618947910999,-38.92875055146191L0.7526189479109935,52.858589455691124L91.87567390868585,-28.58307405606733z" style="fill:rgb(238,238,238); fill-opacity: 0.47"></path><path d="M235.4987402721536,23.071027646115134L235.4987402721536,31.016295820333646L264.29308390658866,31.439653612321482z" style="fill:rgb(255,187,187); fill-opacity: 0.4"></path><path d="M475.38249704113485,45.88370654969787L395.64982656238755,36.83123991277375L395.64982656238755,28.885971738555245z" style="fill:rgb(153,221,255); fill-opacity: 0.4"></path><path d="M235.4987377614028,23.07102706584652L264.2930813770702,31.4396537790091" style="fill:none;stroke:rgb(0,0,0);stroke-width:1;stroke-linecap:round"></path><path d="M393.1785407945956,39.932750782570366L395.64982656238755,36.83123991277375L475.38249704113485,45.88370654969787z" style="fill:rgb(153,221,255); fill-opacity: 0.4"></path><path d="M277.7146817521256,-46.555224335843796L277.7146817521256,45.23211567130923L249.16526818302813,-10.725164670185876z" style="fill:rgb(238,238,238); fill-opacity: 0.47"></path><path d="M393.1785407945957,31.98748260835185L472.91121127334293,41.03994924527596M0.752618947910999,-38.92875055146191L91.87567390868585,-28.58307405606733M577.3987403326257,-38.702275916760286L577.3987403326257,89.79999403149539M577.3987403326257,89.79999403149539L537.4295632213308,139.96207519715148" style="fill:none;stroke:rgb(0,0,0);stroke-width:1;stroke-linecap:round"></path><path d="M393.1785407945956,31.98748260835185L472.91121127334293,41.03994924527596L395.64982656238755,28.885971738555245zM475.38249704113485,37.93843837547935L475.38249704113485,45.88370654969787L395.64982656238755,28.885971738555245zM393.1785407945956,31.98748260835185L393.1785407945956,39.932750782570366L472.91121127334293,41.03994924527596z" style="fill:rgb(153,221,255); fill-opacity: 0.4"></path><path d="M572.2643849243842,77.15310487367746L503.92209370380306,69.39384750213152M503.92209370380306,61.44857932791301L503.92209370380306,69.39384750213152M503.92209370380306,69.39384750213152L501.45080793601113,72.49535837192813" style="fill:none;stroke:rgb(0,0,0);stroke-width:1;stroke-linecap:round"></path><path d="M577.3987403326257,89.7999940314954L509.0564491120446,82.04073665994946L509.0564491120446,-46.46153328830622zM122.11869560753648,-19.877833593447875L224.6321298264774,-8.23894783267512L144.95822583433403,-48.5418805372192z" style="fill:rgb(238,238,238); fill-opacity: 0.47"></path><path d="M368.83773671290044,-36.20954784044922L340.288323143803,-0.3794881747912954" style="fill:none;stroke:rgb(0,0,0);stroke-width:1;stroke-linecap:round"></path><path d="M364.8214631028537,107.27909799706832L399.08075687184885,64.28302955329882L478.81342735059616,73.33549619022294z" style="fill:rgb(238,238,238); fill-opacity: 0.47"></path><path d="M157.42784308899292,59.5859755873833h28.60009162839816v14.300045814199079h-28.60009162839816z" style="fill:rgb(255,255,255)"></path><path d="M472.91121127334293,48.985217419494475L393.1785407945956,39.932750782570366L475.38249704113485,45.88370654969787zM472.91121127334293,41.03994924527596L475.38249704113485,37.93843837547935L395.64982656238755,28.885971738555245z" style="fill:rgb(153,221,255); fill-opacity: 0.4"></path><path d="M572.2643849243842,69.20783669945895L503.92209370380306,61.44857932791301M503.92209370380306,61.44857932791301L501.45080793601113,64.55009019770962" style="fill:none;stroke:rgb(0,0,0);stroke-width:1;stroke-linecap:round"></path><path d="M478.81342735059616,-36.80930373601594L478.81342735059616,73.33549619022294L399.08075687184885,-45.86177037294006z" style="fill:rgb(238,238,238); fill-opacity: 0.47"></path><path d="M478.81342735059616,-36.80930373601594L399.0807568718489,-45.86177037294005M399.0807568718489,-45.86177037294005L364.82146310285384,-2.865701929170557" style="fill:none;stroke:rgb(0,0,0);stroke-width:1;stroke-linecap:round"></path><path d="M503.92209370380306,61.44857932791301L503.92209370380306,69.39384750213152L501.45080793601113,64.55009019770962z" style="fill:rgb(153,221,255); fill-opacity: 0.4"></path><path d="M475.38249921278435,37.93843774157477L475.38249921278435,45.88370717865964M475.38249921278435,45.88370717865964L472.91121265939194,48.985219034400004M475.38249921278435,45.88370717865964L503.6121135508698,47.188122923922386M475.38249704113485,37.93843837547936L475.38249704113485,45.88370654969787M475.38249704113485,45.88370654969787L472.91121127334293,48.985217419494475" style="fill:none;stroke:rgb(0,0,0);stroke-width:1;stroke-linecap:round"></path><path d="M97.13093919547204,11.855735681807193h28.60009162839816v14.300045814199079h-28.60009162839816z" style="fill:rgb(255,255,255)"></path><path d="M340.28832314380304,91.40785183236174L368.8377367129005,55.57779216670382L368.8377367129005,-36.20954784044921z" style="fill:rgb(238,238,238); fill-opacity: 0.47"></path><path d="M393.1785407945956,39.932750782570366L472.91121127334293,48.985217419494475L472.91121127334293,41.03994924527596zM503.92209370380306,69.39384750213152L501.45080793601113,72.49535837192813L501.45080793601113,64.55009019770962z" style="fill:rgb(153,221,255); fill-opacity: 0.4"></path><path d="M664.5936688639267,-41.88845795242157L664.5936688639266,104.97128201785088M664.5936688639266,104.97128201785088L618.9146084103317,162.29937590539353" style="fill:none;stroke:rgb(0,0,0);stroke-width:1;stroke-linecap:round"></path><path d="M572.2643849243842,77.15310487367745L503.92209370380306,69.39384750213152L503.92209370380306,61.44857932791301z" style="fill:rgb(153,221,255); fill-opacity: 0.4"></path><path d="M501.45080793601113,64.55009019770962L501.45080793601113,72.49535837192813M501.45080793601113,72.49535837192813L569.7930991565923,80.25461574347408" style="fill:none;stroke:rgb(0,0,0);stroke-width:1;stroke-linecap:round"></path><path d="M475.38249823755405,45.8837066855336L475.38249823755405,37.938438511315084L503.6121132899574,47.18812263589201z" style="fill:rgb(255,187,187); fill-opacity: 0.4"></path><path d="M475.38249921278435,37.93843774157477L472.91121265939194,41.03994959731513M475.38249921278435,37.93843774157477L503.6121135508698,47.188122923922386M475.38249704113485,37.93843837547936L472.91121127334293,41.03994924527596" style="fill:none;stroke:rgb(0,0,0);stroke-width:1;stroke-linecap:round"></path><path d="M472.91121127334293,48.985217419494475L475.38249704113485,45.88370654969787L475.38249704113485,37.93843837547935z" style="fill:rgb(153,221,255); fill-opacity: 0.4"></path><path d="M475.38249823755405,37.938438511315084L475.38249823755405,45.8837066855336L472.9112124697622,48.98521755533021z" style="fill:rgb(255,187,187); fill-opacity: 0.4"></path><path d="M501.45080793601113,72.49535837192813L503.92209370380306,69.39384750213152L572.2643849243842,77.15310487367745z" style="fill:rgb(153,221,255); fill-opacity: 0.4"></path><path d="M472.9112124697622,48.98521755533021L475.38249823755405,45.8837066855336L503.6121132899574,47.18812263589201z" style="fill:rgb(255,187,187); fill-opacity: 0.4"></path><path d="M277.7146817521256,45.23211567130923L249.16526818302813,81.06217533696714L249.16526818302813,-10.725164670185876z" style="fill:rgb(238,238,238); fill-opacity: 0.47"></path><path d="M472.91121265939194,48.985219034400004L503.6121135508698,47.188122923922386M472.91121265939194,41.03994959731513L503.6121135508698,47.188122923922386" style="fill:none;stroke:rgb(0,0,0);stroke-width:1;stroke-linecap:round"></path><path d="M224.6321298264774,-8.23894783267512L224.6321298264774,65.19092215246111L247.47166005327492,-36.90299477644645z" style="fill:rgb(238,238,238); fill-opacity: 0.47"></path><path d="M501.45080793601113,64.55009019770962L569.7930991565923,72.30934756925556" style="fill:none;stroke:rgb(0,0,0);stroke-width:1;stroke-linecap:round"></path><path d="M475.38249823755405,37.938438511315084L472.9112124697622,41.039949381111704L503.6121132899574,47.18812263589201z" style="fill:rgb(255,187,187); fill-opacity: 0.4"></path><path d="M472.91121127334293,41.03994924527596L472.91121127334293,48.985217419494475L475.38249704113485,37.93843837547935z" style="fill:rgb(153,221,255); fill-opacity: 0.4"></path><path d="M475.38249823755405,37.938438511315084L472.9112124697622,48.98521755533021L472.9112124697622,41.039949381111704z" style="fill:rgb(255,187,187); fill-opacity: 0.4"></path><path d="M472.91121127334293,41.03994924527596L472.91121127334293,48.985217419494475M472.91121265939194,48.985219034400004L472.91121265939194,41.03994959731513" style="fill:none;stroke:rgb(0,0,0);stroke-width:1;stroke-linecap:round"></path><path d="M472.9112124697622,41.039949381111704L472.9112124697622,48.98521755533021L503.6121132899574,47.18812263589201z" style="fill:rgb(255,187,187); fill-opacity: 0.4"></path><path d="M693.3511530288094,108.2362694364507L690.6123451300319,107.92531826700208M690.6123451300319,-38.934421703270374L690.6123451300319,107.92531826700208M690.6123451300319,107.92531826700208L644.9332846764368,165.25341215454475M224.63212982647747,-8.238947832675118L224.6321298264774,65.19092215246111" style="fill:none;stroke:rgb(0,0,0);stroke-width:1;stroke-linecap:round"></path><path d="M340.28832314380304,91.40785183236174L249.16526818302813,81.06217533696714L368.8377367129005,55.57779216670382zM122.11869560753648,53.552036391688354L224.6321298264774,65.19092215246111L224.6321298264774,-8.23894783267512z" style="fill:rgb(238,238,238); fill-opacity: 0.47"></path><path d="M693.3511530288094,-38.62347053382176L693.3511530288094,108.2362694364507M693.3511530288094,108.2362694364507L647.6720925752144,165.56436332399335" style="fill:none;stroke:rgb(0,0,0);stroke-width:1;stroke-linecap:round"></path><path d="M501.45080793601113,64.55009019770962L569.7930991565923,72.30934756925555L503.92209370380306,61.44857932791301z" style="fill:rgb(153,221,255); fill-opacity: 0.4"></path><path d="M122.11869560753648,-19.877833593447875L122.11869560753648,53.552036391688354L224.6321298264774,-8.23894783267512z" style="fill:rgb(238,238,238); fill-opacity: 0.47"></path><path d="M572.2643849243842,69.20783669945895L572.2643849243842,77.15310487367745L503.92209370380306,61.44857932791301z" style="fill:rgb(153,221,255); fill-opacity: 0.4"></path><path d="M122.1186956075365,-19.87783359344788L224.63212982647747,-8.238947832675118" style="fill:none;stroke:rgb(0,0,0);stroke-width:1;stroke-linecap:round"></path><path d="M664.5936688639266,104.97128201785088L607.6417621253731,98.50523450477542L607.6417621253731,-48.354505465497034z" style="fill:rgb(238,238,238); fill-opacity: 0.47"></path><path d="M501.45080793601113,64.55009019770962L501.45080793601113,72.49535837192813L569.7930991565923,72.30934756925555zM569.7930991565923,80.25461574347408L501.45080793601113,72.49535837192813L572.2643849243842,77.15310487367745zM569.7930991565923,72.30934756925555L572.2643849243842,69.20783669945895L503.92209370380306,61.44857932791301z" style="fill:rgb(153,221,255); fill-opacity: 0.4"></path><path d="M572.2643698088418,69.20783406406247L572.2643698088418,77.15310223828098M572.2643698088418,77.15310223828098L569.7930840410498,80.2546131080776M572.2643698088418,77.15310223828098L600.3617471422818,81.28378424892918M572.2643849243842,69.20783669945895L572.2643849243842,77.15310487367746M572.2643849243842,77.15310487367746L569.7930991565923,80.25461574347408" style="fill:none;stroke:rgb(0,0,0);stroke-width:1;stroke-linecap:round"></path><path d="M240.9235055822406,-44.66833768949005h28.60009162839816v14.300045814199079h-28.60009162839816z" style="fill:rgb(255,255,255)"></path><path d="M501.45080793601113,72.49535837192813L569.7930991565923,80.25461574347408L569.7930991565923,72.30934756925555z" style="fill:rgb(153,221,255); fill-opacity: 0.4"></path><path d="M572.2643848304875,77.15310486301688L572.2643848304875,69.20783668879837L600.3617624005831,81.28378455975944z" style="fill:rgb(255,187,187); fill-opacity: 0.4"></path><path d="M347.30248756558456,40.18775654476084L256.17943260480973,29.842080049366256M256.17943260480973,21.896811875147744L256.17943260480973,29.842080049366256M256.17943260480973,29.842080049366256L253.70814683701784,32.943590919162865" style="fill:none;stroke:rgb(0,0,0);stroke-width:1;stroke-linecap:round"></path><path d="M340.28832314380304,-0.3794881747912954L368.8377367129005,-36.20954784044921L277.7146817521256,-46.555224335843796z" style="fill:rgb(238,238,238); fill-opacity: 0.47"></path><path d="M572.2643698088418,69.20783406406247L569.7930840410498,72.30934493385907M572.2643698088418,69.20783406406247L600.3617471422818,81.28378424892918M572.2643849243842,69.20783669945895L569.7930991565923,72.30934756925556" style="fill:none;stroke:rgb(0,0,0);stroke-width:1;stroke-linecap:round"></path><path d="M572.2643848304875,69.20783668879837L572.2643848304875,77.15310486301688L569.7930990626955,80.25461573281349z" style="fill:rgb(255,187,187); fill-opacity: 0.4"></path><path d="M569.7930991565923,80.25461574347408L572.2643849243842,77.15310487367745L572.2643849243842,69.20783669945895z" style="fill:rgb(153,221,255); fill-opacity: 0.4"></path><path d="M569.7930990626955,80.25461573281349L572.2643848304875,77.15310486301688L600.3617624005831,81.28378455975944z" style="fill:rgb(255,187,187); fill-opacity: 0.4"></path><path d="M569.7930840410498,80.2546131080776L600.3617471422818,81.28378424892918M569.7930840410498,72.30934493385907L600.3617471422818,81.28378424892918" style="fill:none;stroke:rgb(0,0,0);stroke-width:1;stroke-linecap:round"></path><path d="M469.0872720007496,132.2028178256055L509.0564491120446,82.04073665994946L577.3987403326257,89.7999940314954zM577.3987403326257,-38.702275916760286L577.3987403326257,89.7999940314954L509.0564491120446,-46.46153328830622zM399.08075687184885,-45.86177037294006L399.08075687184885,64.28302955329882L364.8214631028537,-2.865701929170562z" style="fill:rgb(238,238,238); fill-opacity: 0.47"></path><path d="M572.2643848304875,69.20783668879837L569.7930990626955,72.30934755859498L600.3617624005831,81.28378455975944z" style="fill:rgb(255,187,187); fill-opacity: 0.4"></path><path d="M347.30248756558456,32.24248837054232L256.17943260480973,21.896811875147744M256.17943260480973,21.896811875147744L253.70814683701784,24.99832274494435M478.81342735059616,-36.80930373601594L444.55413358160104,6.186764707753549" style="fill:none;stroke:rgb(0,0,0);stroke-width:1;stroke-linecap:round"></path><path d="M572.2643848304875,69.20783668879837L569.7930990626955,80.25461573281349L569.7930990626955,72.30934755859498z" style="fill:rgb(255,187,187); fill-opacity: 0.4"></path><path d="M569.7930991565923,72.30934756925555L569.7930991565923,80.25461574347408L572.2643849243842,69.20783669945895z" style="fill:rgb(153,221,255); fill-opacity: 0.4"></path><path d="M249.16526818302813,-10.725164670185876L249.16526818302813,81.06217533696716M249.16526818302813,81.06217533696716L340.288323143803,91.40785183236174M569.7930840410498,80.2546131080776L569.7930840410498,72.30934493385907M569.7930991565923,72.30934756925556L569.7930991565923,80.25461574347408" style="fill:none;stroke:rgb(0,0,0);stroke-width:1;stroke-linecap:round"></path><path d="M569.7930990626955,72.30934755859498L569.7930990626955,80.25461573281349L600.3617624005831,81.28378455975944z" style="fill:rgb(255,187,187); fill-opacity: 0.4"></path><path d="M256.17943260480973,21.89681187514774L256.17943260480973,29.842080049366256L253.70814683701784,24.99832274494435zM256.17943260480973,29.842080049366256L253.70814683701784,32.943590919162865L253.70814683701784,24.99832274494435z" style="fill:rgb(153,221,255); fill-opacity: 0.4"></path><path d="M577.3987403326257,-38.702275916760286L509.0564491120446,-46.46153328830622M509.0564491120446,-46.46153328830622L469.0872720007496,3.7005478773498535M253.70814683701784,24.99832274494435L253.70814683701784,32.943590919162865M253.70814683701784,32.943590919162865L344.8312017977927,43.28926741455744" style="fill:none;stroke:rgb(0,0,0);stroke-width:1;stroke-linecap:round"></path><path d="M444.5541335816011,116.33156463399244L478.81342735059616,73.33549619022294L478.81342735059616,-36.80930373601594z" style="fill:rgb(238,238,238); fill-opacity: 0.47"></path><path d="M347.3024875655846,40.18775654476084L256.17943260480973,29.842080049366256L256.17943260480973,21.89681187514774z" style="fill:rgb(153,221,255); fill-opacity: 0.4"></path><path d="M253.70814683701784,24.99832274494435L344.8312017977927,35.34399924033893" style="fill:none;stroke:rgb(0,0,0);stroke-width:1;stroke-linecap:round"></path><path d="M253.70814683701784,32.943590919162865L256.17943260480973,29.842080049366256L347.3024875655846,40.18775654476084z" style="fill:rgb(153,221,255); fill-opacity: 0.4"></path><path d="M693.3511530288094,108.2362694364507L690.6123451300319,107.92531826700208L690.6123451300319,-38.934421703270374z" style="fill:rgb(238,238,238); fill-opacity: 0.47"></path><path d="M253.70814683701784,24.99832274494435L344.83120179779274,35.34399924033893L256.17943260480973,21.89681187514774zM253.70814683701784,24.99832274494435L253.70814683701784,32.943590919162865L344.83120179779274,35.34399924033893z" style="fill:rgb(153,221,255); fill-opacity: 0.4"></path><path d="M664.5936688639266,-41.888457952421575L664.5936688639266,104.97128201785088L607.6417621253731,-48.354505465497034z" style="fill:rgb(238,238,238); fill-opacity: 0.47"></path><path d="M347.3024875655846,32.24248837054232L347.3024875655846,40.18775654476084L256.17943260480973,21.89681187514774z" style="fill:rgb(153,221,255); fill-opacity: 0.4"></path><path d="M278.77922643604666,86.44950810906761h28.60009162839816v14.300045814199079h-28.60009162839816z" style="fill:rgb(255,255,255)"></path><path d="M561.9627016717782,155.8333283923181L607.6417621253731,98.50523450477542L664.5936688639266,104.97128201785088zM249.16526818302813,-10.725164670185876L340.28832314380304,-0.3794881747912954L277.7146817521256,-46.555224335843796z" style="fill:rgb(238,238,238); fill-opacity: 0.47"></path><path d="M344.83120179779274,43.28926741455744L253.70814683701784,32.943590919162865L347.3024875655846,40.18775654476084z" style="fill:rgb(153,221,255); fill-opacity: 0.4"></path><path d="M444.5541335816011,116.33156463399244L364.8214631028537,107.27909799706832L478.81342735059616,73.33549619022294zM399.08075687184885,64.28302955329882L364.8214631028537,107.27909799706832L364.8214631028537,-2.865701929170562z" style="fill:rgb(238,238,238); fill-opacity: 0.47"></path><path d="M344.83120179779274,35.34399924033893L347.3024875655846,32.24248837054232L256.17943260480973,21.89681187514774z" style="fill:rgb(153,221,255); fill-opacity: 0.4"></path><path d="M340.28832314380304,-0.3794881747912954L340.28832314380304,91.40785183236174L368.8377367129005,-36.20954784044921z" style="fill:rgb(238,238,238); fill-opacity: 0.47"></path><path d="M347.30248756558456,32.24248837054232L347.30248756558456,40.18775654476084M347.30248756558456,40.18775654476084L344.8312017977927,43.28926741455744M347.30248488472387,32.24248846655862L347.30248488472387,40.18775664077713M347.30248488472387,40.18775664077713L344.831199116932,43.28926751057374M347.30248488472387,40.18775664077713L371.75568419907626,42.9087345261052M577.3987403326257,-38.702275916760286L537.4295632213308,11.459805248895787" style="fill:none;stroke:rgb(0,0,0);stroke-width:1;stroke-linecap:round"></path><path d="M253.70814683701784,32.943590919162865L344.83120179779274,43.28926741455744L344.83120179779274,35.34399924033893z" style="fill:rgb(153,221,255); fill-opacity: 0.4"></path><path d="M664.5936688639267,-41.88845795242157L607.6417621253731,-48.354505465497034M607.6417621253731,-48.354505465497034L561.9627016717782,8.973588422045626" style="fill:none;stroke:rgb(0,0,0);stroke-width:1;stroke-linecap:round"></path><path d="M224.17751346192478,30.187139259756513h28.60009162839816v14.300045814199079h-28.60009162839816z" style="fill:rgb(255,255,255)"></path><path d="M347.30248756558456,32.24248837054232L344.8312017977927,35.34399924033893M347.30248488472387,32.24248846655862L344.831199116932,35.343999336355225M347.30248488472387,32.24248846655862L371.75568419907626,42.9087345261052" style="fill:none;stroke:rgb(0,0,0);stroke-width:1;stroke-linecap:round"></path><path d="M347.30248744038903,32.24248835632821L347.30248744038903,40.18775653054672L344.8312016725971,43.289267400343334z" style="fill:rgb(255,187,187); fill-opacity: 0.4"></path><path d="M344.83120179779274,43.28926741455744L347.3024875655846,40.18775654476084L347.3024875655846,32.24248837054232z" style="fill:rgb(153,221,255); fill-opacity: 0.4"></path><path d="M340.288323143803,-0.3794881747912954L340.288323143803,91.40785183236174" style="fill:none;stroke:rgb(0,0,0);stroke-width:1;stroke-linecap:round"></path><path d="M509.0564491120446,-46.46153328830622L509.0564491120446,82.04073665994946L469.0872720007496,3.7005478773498535zM537.4295632213308,139.96207519715145L577.3987403326257,89.7999940314954L577.3987403326257,-38.702275916760286zM444.5541335816011,6.186764707753549L478.81342735059616,-36.80930373601594L399.08075687184885,-45.86177037294006zM693.3511530288094,-38.623470533821745L693.3511530288094,108.2362694364507L690.6123451300319,-38.934421703270374z" style="fill:rgb(238,238,238); fill-opacity: 0.47"></path><path d="M347.30248744038903,40.18775653054672L347.30248744038903,32.24248835632821L371.75568649493636,42.908734752140745zM347.30248744038903,32.24248835632821L344.8312016725971,43.289267400343334L344.8312016725971,35.343999226124815z" style="fill:rgb(255,187,187); fill-opacity: 0.4"></path><path d="M344.83120179779274,35.34399924033893L344.83120179779274,43.28926741455744L347.3024875655846,32.24248837054232z" style="fill:rgb(153,221,255); fill-opacity: 0.4"></path><path d="M651.7736672235092,60.05864075336563L594.8217604849557,53.592593240290164M594.8217604849557,45.64732506607164L594.8217604849557,53.592593240290164M594.8217604849557,53.592593240290164L592.3504747171638,56.69410411008677M344.8312017977927,35.34399924033893L344.8312017977927,43.28926741455744M344.831199116932,43.28926751057374L344.831199116932,35.343999336355225M344.831199116932,43.28926751057374L371.75568419907626,42.9087345261052" style="fill:none;stroke:rgb(0,0,0);stroke-width:1;stroke-linecap:round"></path><path d="M249.16526818302813,81.06217533696714L340.28832314380304,91.40785183236174L340.28832314380304,-0.3794881747912954z" style="fill:rgb(238,238,238); fill-opacity: 0.47"></path><path d="M344.8312016725971,43.289267400343334L347.30248744038903,40.18775653054672L371.75568649493636,42.908734752140745z" style="fill:rgb(255,187,187); fill-opacity: 0.4"></path><path d="M359.4346392804001,-40.39188325095781h28.60009162839816v14.300045814199079h-28.60009162839816z" style="fill:rgb(255,255,255)"></path><path d="M651.7736672235092,52.11337257914711L594.8217604849557,45.64732506607164M594.8217604849557,45.64732506607164L592.3504747171638,48.74883593586824" style="fill:none;stroke:rgb(0,0,0);stroke-width:1;stroke-linecap:round"></path><path d="M347.30248744038903,32.24248835632821L344.8312016725971,35.343999226124815L371.75568649493636,42.908734752140745z" style="fill:rgb(255,187,187); fill-opacity: 0.4"></path><path d="M344.831199116932,35.343999336355225L371.75568419907626,42.9087345261052" style="fill:none;stroke:rgb(0,0,0);stroke-width:1;stroke-linecap:round"></path><path d="M594.8217604849557,45.64732506607164L594.8217604849557,53.592593240290164L592.3504747171638,48.74883593586824z" style="fill:rgb(153,221,255); fill-opacity: 0.4"></path><path d="M344.8312016725971,35.343999226124815L344.8312016725971,43.289267400343334L371.75568649493636,42.908734752140745z" style="fill:rgb(255,187,187); fill-opacity: 0.4"></path><path d="M249.16526818302813,-10.725164670185876L249.16526818302813,81.06217533696714L340.28832314380304,-0.3794881747912954zM644.9332846764369,165.25341215454475L690.6123451300319,107.92531826700208L693.3511530288094,108.2362694364507z" style="fill:rgb(238,238,238); fill-opacity: 0.47"></path><path d="M594.8217604849557,53.592593240290164L592.3504747171638,56.69410411008677L592.3504747171638,48.74883593586824zM651.7736672235092,60.05864075336561L594.8217604849557,53.592593240290164L594.8217604849557,45.64732506607164z" style="fill:rgb(153,221,255); fill-opacity: 0.4"></path><path d="M592.3504747171638,48.74883593586824L592.3504747171638,56.69410411008677M592.3504747171638,56.69410411008677L649.3023814557173,63.160151623162236" style="fill:none;stroke:rgb(0,0,0);stroke-width:1;stroke-linecap:round"></path><path d="M592.3504747171638,56.69410411008677L594.8217604849557,53.592593240290164L651.7736672235092,60.05864075336561z" style="fill:rgb(153,221,255); fill-opacity: 0.4"></path><path d="M249.16526818302813,-10.725164670185876L340.288323143803,-0.3794881747912954M364.82146310285384,-2.865701929170557L364.82146310285384,107.27909799706833M364.82146310285384,107.27909799706833L444.55413358160104,116.33156463399241M592.3504747171638,48.74883593586824L649.3023814557173,55.214883448943716M664.5936688639267,-41.88845795242157L618.9146084103317,15.43963593512109" style="fill:none;stroke:rgb(0,0,0);stroke-width:1;stroke-linecap:round"></path><path d="M651.7736672235092,52.1133725791471L651.7736672235092,60.05864075336561L594.8217604849557,45.64732506607164zM592.3504747171638,48.74883593586824L649.3023814557173,55.2148834489437L594.8217604849557,45.64732506607164zM592.3504747171638,48.74883593586824L592.3504747171638,56.69410411008677L649.3023814557173,55.2148834489437zM649.3023814557173,63.16015162316223L592.3504747171638,56.69410411008677L651.7736672235092,60.05864075336561z" style="fill:rgb(153,221,255); fill-opacity: 0.4"></path><path d="M651.7736616142989,52.11337194700082L651.7736616142989,60.05864012121934M651.7736616142989,60.05864012121934L649.3023758465071,63.160150991015946M651.7736616142989,60.05864012121934L677.9260977181789,60.74627316349464M651.7736672235092,52.11337257914711L651.7736672235092,60.05864075336563M651.7736672235092,60.05864075336563L649.3023814557173,63.160151623162236" style="fill:none;stroke:rgb(0,0,0);stroke-width:1;stroke-linecap:round"></path><path d="M537.4295632213308,139.96207519715145L469.0872720007496,132.2028178256055L577.3987403326257,89.7999940314954z" style="fill:rgb(238,238,238); fill-opacity: 0.47"></path><path d="M649.3023814557173,55.2148834489437L651.7736672235092,52.1133725791471L594.8217604849557,45.64732506607164z" style="fill:rgb(153,221,255); fill-opacity: 0.4"></path><path d="M618.9146084103317,162.29937590539353L664.5936688639266,104.97128201785088L664.5936688639266,-41.888457952421575z" style="fill:rgb(238,238,238); fill-opacity: 0.47"></path><path d="M693.3511530288094,-38.62347053382176L690.6123451300319,-38.934421703270374M690.6123451300319,-38.934421703270374L644.9332846764368,18.39367218427228M651.7736616142989,52.11337194700082L649.3023758465071,55.21488281679743M651.7736616142989,52.11337194700082L677.9260977181789,60.74627316349464M651.7736672235092,52.11337257914711L649.3023814557173,55.214883448943716" style="fill:none;stroke:rgb(0,0,0);stroke-width:1;stroke-linecap:round"></path><path d="M592.3504747171638,56.69410411008677L649.3023814557173,63.16015162316223L649.3023814557173,55.2148834489437z" style="fill:rgb(153,221,255); fill-opacity: 0.4"></path><path d="M693.3511530288094,-38.62347053382176L647.6720925752144,18.704623353720905" style="fill:none;stroke:rgb(0,0,0);stroke-width:1;stroke-linecap:round"></path><path d="M649.3023814557173,63.16015162316223L651.7736672235092,60.05864075336561L651.7736672235092,52.1133725791471z" style="fill:rgb(153,221,255); fill-opacity: 0.4"></path><path d="M651.7736684512273,52.11337271853636L651.7736684512273,60.05864089275487L649.3023826834354,63.160151762551486z" style="fill:rgb(255,187,187); fill-opacity: 0.4"></path><path d="M509.0564491120446,82.04073665994946L469.0872720007496,132.2028178256055L469.0872720007496,3.7005478773498535z" style="fill:rgb(238,238,238); fill-opacity: 0.47"></path><path d="M651.7736684512273,60.05864089275487L651.7736684512273,52.11337271853636L677.9261045551073,60.746273935030175z" style="fill:rgb(255,187,187); fill-opacity: 0.4"></path><path d="M607.6417621253731,-48.354505465497034L607.6417621253731,98.50523450477542L561.9627016717782,8.973588422045621z" style="fill:rgb(238,238,238); fill-opacity: 0.47"></path><path d="M649.3023826834354,63.160151762551486L651.7736684512273,60.05864089275487L677.9261045551073,60.746273935030175z" style="fill:rgb(255,187,187); fill-opacity: 0.4"></path><path d="M649.3023814557173,55.2148834489437L649.3023814557173,63.16015162316223L651.7736672235092,52.1133725791471z" style="fill:rgb(153,221,255); fill-opacity: 0.4"></path><path d="M651.7736684512273,52.11337271853636L649.3023826834354,63.160151762551486L649.3023826834354,55.21488358833297z" style="fill:rgb(255,187,187); fill-opacity: 0.4"></path><path d="M649.3023758465071,63.160150991015946L649.3023758465071,55.21488281679743M649.3023758465071,63.160150991015946L677.9260977181789,60.74627316349464M649.3023814557173,55.214883448943716L649.3023814557173,63.160151623162236" style="fill:none;stroke:rgb(0,0,0);stroke-width:1;stroke-linecap:round"></path><path d="M388.74022794430255,112.01983107238112h28.60009162839816v14.300045814199079h-28.60009162839816z" style="fill:rgb(255,255,255)"></path><path d="M651.7736684512273,52.11337271853636L649.3023826834354,55.21488358833297L677.9261045551073,60.746273935030175zM649.3023826834354,55.21488358833297L649.3023826834354,63.160151762551486L677.9261045551073,60.746273935030175z" style="fill:rgb(255,187,187); fill-opacity: 0.4"></path><path d="M647.6720925752145,165.56436332399335L693.3511530288094,108.2362694364507L693.3511530288094,-38.623470533821745zM444.5541335816011,6.186764707753549L444.5541335816011,116.33156463399244L478.81342735059616,-36.80930373601594z" style="fill:rgb(238,238,238); fill-opacity: 0.47"></path><path d="M649.3023758465071,55.21488281679743L677.9260977181789,60.74627316349464" style="fill:none;stroke:rgb(0,0,0);stroke-width:1;stroke-linecap:round"></path><path d="M364.8214631028537,-2.865701929170562L444.5541335816011,6.186764707753549L399.08075687184885,-45.86177037294006zM537.4295632213308,11.459805248895787L577.3987403326257,-38.702275916760286L509.0564491120446,-46.46153328830622z" style="fill:rgb(238,238,238); fill-opacity: 0.47"></path><path d="M444.55413358160104,6.186764707753549L444.55413358160104,116.33156463399241" style="fill:none;stroke:rgb(0,0,0);stroke-width:1;stroke-linecap:round"></path><path d="M466.5553911397619,-37.40863837079635h28.60009162839816v14.300045814199079h-28.60009162839816zM339.8337058895796,47.225333279335025h28.60009162839816v14.300045814199079h-28.60009162839816z" style="fill:rgb(255,255,255)"></path><path d="M364.8214631028537,107.27909799706832L444.5541335816011,116.33156463399244L444.5541335816011,6.186764707753549zM618.9146084103317,162.29937590539353L561.9627016717782,155.8333283923181L664.5936688639266,104.97128201785088z" style="fill:rgb(238,238,238); fill-opacity: 0.47"></path><path d="M469.0872720007496,3.7005478773498535L469.0872720007496,132.20281782560554M469.0872720007496,132.20281782560554L537.4295632213308,139.96207519715148" style="fill:none;stroke:rgb(0,0,0);stroke-width:1;stroke-linecap:round"></path><path d="M690.6123451300319,-38.934421703270374L690.6123451300319,107.92531826700208L644.9332846764369,18.393672184272283zM364.8214631028537,-2.865701929170562L364.8214631028537,107.27909799706832L444.5541335816011,6.186764707753549zM607.6417621253731,98.50523450477542L561.9627016717782,155.8333283923181L561.9627016717782,8.973588422045621zM618.9146084103317,15.43963593512108L664.5936688639266,-41.888457952421575L607.6417621253731,-48.354505465497034zM647.6720925752145,165.56436332399335L644.9332846764369,165.25341215454475L693.3511530288094,108.2362694364507z" style="fill:rgb(238,238,238); fill-opacity: 0.47"></path><path d="M364.82146310285384,-2.865701929170557L444.55413358160104,6.186764707753549" style="fill:none;stroke:rgb(0,0,0);stroke-width:1;stroke-linecap:round"></path><path d="M487.31084761376053,136.29694447732385h28.60009162839816v14.300045814199079h-28.60009162839816z" style="fill:rgb(255,255,255)"></path><path d="M537.4295632213308,11.459805248895787L537.4295632213308,139.96207519715145L577.3987403326257,-38.702275916760286zM469.0872720007496,3.7005478773498535L537.4295632213308,11.459805248895787L509.0564491120446,-46.46153328830622z" style="fill:rgb(238,238,238); fill-opacity: 0.47"></path><path d="M537.4295632213308,11.459805248895787L537.4295632213308,139.96207519715148" style="fill:none;stroke:rgb(0,0,0);stroke-width:1;stroke-linecap:round"></path><path d="M647.6720925752145,18.70462335372091L693.3511530288094,-38.623470533821745L690.6123451300319,-38.934421703270374z" style="fill:rgb(238,238,238); fill-opacity: 0.47"></path><path d="M562.2857611603256,-35.718603049005715h28.60009162839816v14.300045814199079h-28.60009162839816z" style="fill:rgb(255,255,255)"></path><path d="M690.6123451300319,107.92531826700208L644.9332846764369,165.25341215454475L644.9332846764369,18.393672184272283zM469.0872720007496,132.2028178256055L537.4295632213308,139.96207519715145L537.4295632213308,11.459805248895787z" style="fill:rgb(238,238,238); fill-opacity: 0.47"></path><path d="M444.0995164784365,62.970317740542754h28.60009162839816v14.300045814199079h-28.60009162839816z" style="fill:rgb(255,255,255)"></path><path d="M561.9627016717782,8.973588422045626L561.9627016717781,155.83332839231807M561.9627016717781,155.83332839231807L618.9146084103317,162.29937590539353" style="fill:none;stroke:rgb(0,0,0);stroke-width:1;stroke-linecap:round"></path><path d="M618.9146084103317,15.43963593512108L618.9146084103317,162.29937590539353L664.5936688639266,-41.888457952421575zM469.0872720007496,3.7005478773498535L469.0872720007496,132.2028178256055L537.4295632213308,11.459805248895787z" style="fill:rgb(238,238,238); fill-opacity: 0.47"></path><path d="M574.4910854444205,159.28084832389575h28.60009162839816v14.300045814199079h-28.60009162839816zM646.6257493420914,-26.143043562665486h28.60009162839816v14.300045814199079h-28.60009162839816z" style="fill:rgb(255,255,255)"></path><path d="M618.9146084103317,15.43963593512109L618.9146084103317,162.29937590539353" style="fill:none;stroke:rgb(0,0,0);stroke-width:1;stroke-linecap:round"></path><path d="M647.6720925752145,18.70462335372091L647.6720925752145,165.56436332399335L693.3511530288094,-38.623470533821745zM561.9627016717782,8.973588422045621L618.9146084103317,15.43963593512108L607.6417621253731,-48.354505465497034z" style="fill:rgb(238,238,238); fill-opacity: 0.47"></path><path d="M469.0872720007496,3.7005478773498535L537.4295632213308,11.459805248895787M644.9332846764368,18.39367218427228L644.9332846764368,165.25341215454475M644.9332846764368,165.25341215454475L647.6720925752144,165.56436332399335M647.6720925752144,18.704623353720905L647.6720925752144,165.56436332399335" style="fill:none;stroke:rgb(0,0,0);stroke-width:1;stroke-linecap:round"></path><path d="M630.3551190291912,165.62338391430902h28.60009162839816v14.300045814199079h-28.60009162839816z" style="fill:rgb(255,255,255)"></path><path d="M561.9627016717782,155.8333283923181L618.9146084103317,162.29937590539353L618.9146084103317,15.43963593512108z" style="fill:rgb(238,238,238); fill-opacity: 0.47"></path><path d="M536.9749452284955,77.42209264337968h28.60009162839816v14.300045814199079h-28.60009162839816z" style="fill:rgb(255,255,255)"></path><path d="M644.9332846764369,18.393672184272283L647.6720925752145,18.70462335372091L690.6123451300319,-38.934421703270374zM644.9332846764369,165.25341215454475L647.6720925752145,165.56436332399335L647.6720925752145,18.70462335372091zM561.9627016717782,8.973588422045621L561.9627016717782,155.8333283923181L618.9146084103317,15.43963593512108z" style="fill:rgb(238,238,238); fill-opacity: 0.47"></path><path d="M621.3149334102611,86.99765212971994h28.60009162839816v14.300045814199079h-28.60009162839816z" style="fill:rgb(255,255,255)"></path><path d="M561.9627016717782,8.973588422045626L618.9146084103317,15.43963593512109" style="fill:none;stroke:rgb(0,0,0);stroke-width:1;stroke-linecap:round"></path><path d="M644.9332846764369,18.393672184272283L644.9332846764369,165.25341215454475L647.6720925752145,18.70462335372091z" style="fill:rgb(238,238,238); fill-opacity: 0.47"></path><path d="M644.9332846764368,18.39367218427228L647.6720925752144,18.704623353720905" style="fill:none;stroke:rgb(0,0,0);stroke-width:1;stroke-linecap:round"></path></svg>